G04 #@! TF.GenerationSoftware,KiCad,Pcbnew,7.0.2-0*
G04 #@! TF.CreationDate,2023-08-25T16:22:02+02:00*
G04 #@! TF.ProjectId,PCE,5043452e-6b69-4636-9164-5f7063625858,rev?*
G04 #@! TF.SameCoordinates,Original*
G04 #@! TF.FileFunction,Paste,Top*
G04 #@! TF.FilePolarity,Positive*
%FSLAX46Y46*%
G04 Gerber Fmt 4.6, Leading zero omitted, Abs format (unit mm)*
G04 Created by KiCad (PCBNEW 7.0.2-0) date 2023-08-25 16:22:02*
%MOMM*%
%LPD*%
G01*
G04 APERTURE LIST*
G04 Aperture macros list*
%AMRoundRect*
0 Rectangle with rounded corners*
0 $1 Rounding radius*
0 $2 $3 $4 $5 $6 $7 $8 $9 X,Y pos of 4 corners*
0 Add a 4 corners polygon primitive as box body*
4,1,4,$2,$3,$4,$5,$6,$7,$8,$9,$2,$3,0*
0 Add four circle primitives for the rounded corners*
1,1,$1+$1,$2,$3*
1,1,$1+$1,$4,$5*
1,1,$1+$1,$6,$7*
1,1,$1+$1,$8,$9*
0 Add four rect primitives between the rounded corners*
20,1,$1+$1,$2,$3,$4,$5,0*
20,1,$1+$1,$4,$5,$6,$7,0*
20,1,$1+$1,$6,$7,$8,$9,0*
20,1,$1+$1,$8,$9,$2,$3,0*%
G04 Aperture macros list end*
%ADD10RoundRect,0.207500X-0.207500X-1.181875X0.207500X-1.181875X0.207500X1.181875X-0.207500X1.181875X0*%
%ADD11RoundRect,0.103750X-0.103750X-1.285625X0.103750X-1.285625X0.103750X1.285625X-0.103750X1.285625X0*%
%ADD12RoundRect,0.207500X1.181875X-0.207500X1.181875X0.207500X-1.181875X0.207500X-1.181875X-0.207500X0*%
%ADD13RoundRect,0.103750X1.285625X-0.103750X1.285625X0.103750X-1.285625X0.103750X-1.285625X-0.103750X0*%
%ADD14RoundRect,0.285000X-0.285000X-0.793750X0.285000X-0.793750X0.285000X0.793750X-0.285000X0.793750X0*%
%ADD15RoundRect,0.142500X-0.142500X-0.936250X0.142500X-0.936250X0.142500X0.936250X-0.142500X0.936250X0*%
G04 APERTURE END LIST*
D10*
X117642600Y-82836000D03*
D11*
X118582600Y-82836000D03*
X119382600Y-82836000D03*
X120182600Y-82836000D03*
X120982600Y-82836000D03*
X121782600Y-82836000D03*
X122582600Y-82836000D03*
X123382600Y-82836000D03*
X124182600Y-82836000D03*
X124982600Y-82836000D03*
X125782600Y-82836000D03*
X126582600Y-82836000D03*
X127382600Y-82836000D03*
X128182600Y-82836000D03*
X128982600Y-82836000D03*
X129782600Y-82836000D03*
X130582600Y-82836000D03*
X131382600Y-82836000D03*
X132182600Y-82836000D03*
X132982600Y-82836000D03*
X133782600Y-82836000D03*
X134582600Y-82836000D03*
X135382600Y-82836000D03*
D10*
X136362600Y-82836000D03*
D12*
X139212600Y-79756000D03*
D13*
X139212600Y-78816000D03*
X139212600Y-78016000D03*
X139212600Y-77216000D03*
X139212600Y-76416000D03*
X139212600Y-75616000D03*
X139212600Y-74816000D03*
X139212600Y-74016000D03*
X139212600Y-73216000D03*
X139212600Y-72416000D03*
X139212600Y-71616000D03*
X139212600Y-70816000D03*
X139212600Y-70016000D03*
X139212600Y-69216000D03*
X139212600Y-68416000D03*
D12*
X139212600Y-67416000D03*
D10*
X136362600Y-64296000D03*
D11*
X135382600Y-64296000D03*
X134582600Y-64296000D03*
X133782600Y-64296000D03*
X132982600Y-64296000D03*
X132182600Y-64296000D03*
X131382600Y-64296000D03*
X130582600Y-64296000D03*
X129782600Y-64296000D03*
X128982600Y-64296000D03*
X128182600Y-64296000D03*
X127382600Y-64296000D03*
X126582600Y-64296000D03*
X125782600Y-64296000D03*
X124982600Y-64296000D03*
X124182600Y-64296000D03*
X123382600Y-64296000D03*
X122582600Y-64296000D03*
X121782600Y-64296000D03*
X120982600Y-64296000D03*
X120182600Y-64296000D03*
X119382600Y-64296000D03*
X118582600Y-64296000D03*
D10*
X117642600Y-64296000D03*
D12*
X114782600Y-67416000D03*
D13*
X114782600Y-68416000D03*
X114782600Y-69216000D03*
X114782600Y-70016000D03*
X114782600Y-70816000D03*
X114782600Y-71616000D03*
X114782600Y-72416000D03*
X114782600Y-73216000D03*
X114782600Y-74016000D03*
X114782600Y-74816000D03*
X114782600Y-75616000D03*
X114782600Y-76416000D03*
X114782600Y-77216000D03*
X114782600Y-78016000D03*
X114782600Y-78816000D03*
D12*
X114782600Y-79756000D03*
D10*
X151677000Y-110928400D03*
D11*
X152617000Y-110928400D03*
X153417000Y-110928400D03*
X154217000Y-110928400D03*
X155017000Y-110928400D03*
X155817000Y-110928400D03*
X156617000Y-110928400D03*
X157417000Y-110928400D03*
X158217000Y-110928400D03*
X159017000Y-110928400D03*
X159817000Y-110928400D03*
X160617000Y-110928400D03*
X161417000Y-110928400D03*
X162217000Y-110928400D03*
X163017000Y-110928400D03*
X163817000Y-110928400D03*
X164617000Y-110928400D03*
X165417000Y-110928400D03*
X166217000Y-110928400D03*
X167017000Y-110928400D03*
X167817000Y-110928400D03*
X168617000Y-110928400D03*
X169417000Y-110928400D03*
D10*
X170397000Y-110928400D03*
D12*
X173247000Y-107848400D03*
D13*
X173247000Y-106908400D03*
X173247000Y-106108400D03*
X173247000Y-105308400D03*
X173247000Y-104508400D03*
X173247000Y-103708400D03*
X173247000Y-102908400D03*
X173247000Y-102108400D03*
X173247000Y-101308400D03*
X173247000Y-100508400D03*
X173247000Y-99708400D03*
X173247000Y-98908400D03*
X173247000Y-98108400D03*
X173247000Y-97308400D03*
X173247000Y-96508400D03*
D12*
X173247000Y-95508400D03*
D10*
X170397000Y-92388400D03*
D11*
X169417000Y-92388400D03*
X168617000Y-92388400D03*
X167817000Y-92388400D03*
X167017000Y-92388400D03*
X166217000Y-92388400D03*
X165417000Y-92388400D03*
X164617000Y-92388400D03*
X163817000Y-92388400D03*
X163017000Y-92388400D03*
X162217000Y-92388400D03*
X161417000Y-92388400D03*
X160617000Y-92388400D03*
X159817000Y-92388400D03*
X159017000Y-92388400D03*
X158217000Y-92388400D03*
X157417000Y-92388400D03*
X156617000Y-92388400D03*
X155817000Y-92388400D03*
X155017000Y-92388400D03*
X154217000Y-92388400D03*
X153417000Y-92388400D03*
X152617000Y-92388400D03*
D10*
X151677000Y-92388400D03*
D12*
X148817000Y-95508400D03*
D13*
X148817000Y-96508400D03*
X148817000Y-97308400D03*
X148817000Y-98108400D03*
X148817000Y-98908400D03*
X148817000Y-99708400D03*
X148817000Y-100508400D03*
X148817000Y-101308400D03*
X148817000Y-102108400D03*
X148817000Y-102908400D03*
X148817000Y-103708400D03*
X148817000Y-104508400D03*
X148817000Y-105308400D03*
X148817000Y-106108400D03*
X148817000Y-106908400D03*
D12*
X148817000Y-107848400D03*
D14*
X154531400Y-47447200D03*
D15*
X155981400Y-47448450D03*
X157251400Y-47448450D03*
X158521400Y-47448450D03*
X159791400Y-47448450D03*
X161061400Y-47448450D03*
X162331400Y-47448450D03*
X163601400Y-47448450D03*
X164871400Y-47448450D03*
X166141400Y-47448450D03*
X167411400Y-47448450D03*
X168681400Y-47448450D03*
X169951400Y-47448450D03*
D14*
X171461400Y-47447200D03*
X171461400Y-36577200D03*
D15*
X169951400Y-36578450D03*
X168681400Y-36578450D03*
X167411400Y-36578450D03*
X166141400Y-36578450D03*
X164871400Y-36578450D03*
X163601400Y-36578450D03*
X162331400Y-36578450D03*
X161061400Y-36578450D03*
X159791400Y-36578450D03*
X158521400Y-36578450D03*
X157251400Y-36578450D03*
X155981400Y-36578450D03*
D14*
X154531400Y-36577200D03*
D10*
X151663200Y-81388200D03*
D11*
X152603200Y-81388200D03*
X153403200Y-81388200D03*
X154203200Y-81388200D03*
X155003200Y-81388200D03*
X155803200Y-81388200D03*
X156603200Y-81388200D03*
X157403200Y-81388200D03*
X158203200Y-81388200D03*
X159003200Y-81388200D03*
X159803200Y-81388200D03*
X160603200Y-81388200D03*
X161403200Y-81388200D03*
X162203200Y-81388200D03*
X163003200Y-81388200D03*
X163803200Y-81388200D03*
X164603200Y-81388200D03*
X165403200Y-81388200D03*
X166203200Y-81388200D03*
X167003200Y-81388200D03*
X167803200Y-81388200D03*
X168603200Y-81388200D03*
X169403200Y-81388200D03*
D10*
X170383200Y-81388200D03*
D12*
X173233200Y-78308200D03*
D13*
X173233200Y-77368200D03*
X173233200Y-76568200D03*
X173233200Y-75768200D03*
X173233200Y-74968200D03*
X173233200Y-74168200D03*
X173233200Y-73368200D03*
X173233200Y-72568200D03*
X173233200Y-71768200D03*
X173233200Y-70968200D03*
X173233200Y-70168200D03*
X173233200Y-69368200D03*
X173233200Y-68568200D03*
X173233200Y-67768200D03*
X173233200Y-66968200D03*
D12*
X173233200Y-65968200D03*
D10*
X170383200Y-62848200D03*
D11*
X169403200Y-62848200D03*
X168603200Y-62848200D03*
X167803200Y-62848200D03*
X167003200Y-62848200D03*
X166203200Y-62848200D03*
X165403200Y-62848200D03*
X164603200Y-62848200D03*
X163803200Y-62848200D03*
X163003200Y-62848200D03*
X162203200Y-62848200D03*
X161403200Y-62848200D03*
X160603200Y-62848200D03*
X159803200Y-62848200D03*
X159003200Y-62848200D03*
X158203200Y-62848200D03*
X157403200Y-62848200D03*
X156603200Y-62848200D03*
X155803200Y-62848200D03*
X155003200Y-62848200D03*
X154203200Y-62848200D03*
X153403200Y-62848200D03*
X152603200Y-62848200D03*
D10*
X151663200Y-62848200D03*
D12*
X148803200Y-65968200D03*
D13*
X148803200Y-66968200D03*
X148803200Y-67768200D03*
X148803200Y-68568200D03*
X148803200Y-69368200D03*
X148803200Y-70168200D03*
X148803200Y-70968200D03*
X148803200Y-71768200D03*
X148803200Y-72568200D03*
X148803200Y-73368200D03*
X148803200Y-74168200D03*
X148803200Y-74968200D03*
X148803200Y-75768200D03*
X148803200Y-76568200D03*
X148803200Y-77368200D03*
D12*
X148803200Y-78308200D03*
D14*
X129018400Y-51484600D03*
D15*
X130468400Y-51485850D03*
X131738400Y-51485850D03*
X133008400Y-51485850D03*
X134278400Y-51485850D03*
X135548400Y-51485850D03*
X136818400Y-51485850D03*
X138088400Y-51485850D03*
X139358400Y-51485850D03*
X140628400Y-51485850D03*
X141898400Y-51485850D03*
X143168400Y-51485850D03*
X144438400Y-51485850D03*
D14*
X145948400Y-51484600D03*
X145948400Y-40614600D03*
D15*
X144438400Y-40615850D03*
X143168400Y-40615850D03*
X141898400Y-40615850D03*
X140628400Y-40615850D03*
X139358400Y-40615850D03*
X138088400Y-40615850D03*
X136818400Y-40615850D03*
X135548400Y-40615850D03*
X134278400Y-40615850D03*
X133008400Y-40615850D03*
X131738400Y-40615850D03*
X130468400Y-40615850D03*
D14*
X129018400Y-40614600D03*
M02*
