G04 #@! TF.GenerationSoftware,KiCad,Pcbnew,7.0.2-0*
G04 #@! TF.CreationDate,2023-08-25T16:22:02+02:00*
G04 #@! TF.ProjectId,PCE,5043452e-6b69-4636-9164-5f7063625858,rev?*
G04 #@! TF.SameCoordinates,Original*
G04 #@! TF.FileFunction,Profile,NP*
%FSLAX46Y46*%
G04 Gerber Fmt 4.6, Leading zero omitted, Abs format (unit mm)*
G04 Created by KiCad (PCBNEW 7.0.2-0) date 2023-08-25 16:22:02*
%MOMM*%
%LPD*%
G01*
G04 APERTURE LIST*
G04 #@! TA.AperFunction,Profile*
%ADD10C,0.100000*%
G04 #@! TD*
G04 #@! TA.AperFunction,Profile*
%ADD11C,0.050000*%
G04 #@! TD*
G04 APERTURE END LIST*
D10*
X213425000Y-31290241D02*
X90778348Y-31286893D01*
X113170000Y-33390000D02*
X114330000Y-33390000D01*
X114330000Y-35750000D01*
X113170000Y-35750000D01*
X113170000Y-33390000D01*
X105380000Y-55500000D02*
X108430000Y-55500000D01*
X108430000Y-56620000D01*
X105380000Y-56620000D01*
X105380000Y-55500000D01*
X105680000Y-33220000D02*
X108310000Y-33220000D01*
X108310000Y-34310000D01*
X105680000Y-34310000D01*
X105680000Y-33220000D01*
X90778348Y-31286899D02*
G75*
G03*
X87103348Y-34961893I-128348J-3546651D01*
G01*
X217100000Y-152608545D02*
X217100000Y-34965241D01*
X217099957Y-34965239D02*
G75*
G03*
X213425000Y-31290242I-3546657J128339D01*
G01*
X213424998Y-156283601D02*
G75*
G03*
X217099999Y-152608545I128302J3546701D01*
G01*
X87103348Y-34961893D02*
X87106696Y-152608545D01*
X87106654Y-152608543D02*
G75*
G03*
X90781696Y-156283545I3546646J-128357D01*
G01*
X166898200Y-134264400D02*
X170058200Y-134264400D01*
X170058200Y-135534400D01*
X166898200Y-135534400D01*
X166898200Y-134264400D01*
X90781696Y-156283545D02*
X213425000Y-156283545D01*
X140223000Y-134340600D02*
X143383000Y-134340600D01*
X143383000Y-135560600D01*
X140223000Y-135560600D01*
X140223000Y-134340600D01*
X213360000Y-78780000D02*
X214540000Y-78780000D01*
X214540000Y-83070000D01*
X213360000Y-83070000D01*
X213360000Y-78780000D01*
X99620000Y-33390000D02*
X100780000Y-33390000D01*
X100780000Y-35750000D01*
X99620000Y-35750000D01*
X99620000Y-33390000D01*
X213430000Y-91920000D02*
X214550000Y-91920000D01*
X214550000Y-96210000D01*
X213430000Y-96210000D01*
X213430000Y-91920000D01*
X89480000Y-135860000D02*
X90530000Y-135860000D01*
X90530000Y-142290000D01*
X89480000Y-142290000D01*
X89480000Y-135860000D01*
D11*
X213850000Y-151300000D02*
G75*
G03*
X213850000Y-151300000I-1750000J0D01*
G01*
X213850000Y-36300000D02*
G75*
G03*
X213850000Y-36300000I-1750000J0D01*
G01*
X93850000Y-151300000D02*
G75*
G03*
X93850000Y-151300000I-1750000J0D01*
G01*
X93850000Y-36300000D02*
G75*
G03*
X93850000Y-36300000I-1750000J0D01*
G01*
M02*
