G04 #@! TF.GenerationSoftware,KiCad,Pcbnew,7.0.2-0*
G04 #@! TF.CreationDate,2023-08-25T16:22:02+02:00*
G04 #@! TF.ProjectId,PCE,5043452e-6b69-4636-9164-5f7063625858,rev?*
G04 #@! TF.SameCoordinates,Original*
G04 #@! TF.FileFunction,Soldermask,Top*
G04 #@! TF.FilePolarity,Negative*
%FSLAX46Y46*%
G04 Gerber Fmt 4.6, Leading zero omitted, Abs format (unit mm)*
G04 Created by KiCad (PCBNEW 7.0.2-0) date 2023-08-25 16:22:02*
%MOMM*%
%LPD*%
G01*
G04 APERTURE LIST*
G04 Aperture macros list*
%AMRoundRect*
0 Rectangle with rounded corners*
0 $1 Rounding radius*
0 $2 $3 $4 $5 $6 $7 $8 $9 X,Y pos of 4 corners*
0 Add a 4 corners polygon primitive as box body*
4,1,4,$2,$3,$4,$5,$6,$7,$8,$9,$2,$3,0*
0 Add four circle primitives for the rounded corners*
1,1,$1+$1,$2,$3*
1,1,$1+$1,$4,$5*
1,1,$1+$1,$6,$7*
1,1,$1+$1,$8,$9*
0 Add four rect primitives between the rounded corners*
20,1,$1+$1,$2,$3,$4,$5,0*
20,1,$1+$1,$4,$5,$6,$7,0*
20,1,$1+$1,$6,$7,$8,$9,0*
20,1,$1+$1,$8,$9,$2,$3,0*%
G04 Aperture macros list end*
%ADD10C,0.400000*%
%ADD11C,1.075000*%
%ADD12C,2.000000*%
%ADD13C,3.500000*%
%ADD14C,3.000000*%
%ADD15O,1.700000X1.700000*%
%ADD16C,6.000000*%
%ADD17C,1.900000*%
%ADD18RoundRect,0.207500X-0.207500X-1.181875X0.207500X-1.181875X0.207500X1.181875X-0.207500X1.181875X0*%
%ADD19RoundRect,0.103750X-0.103750X-1.285625X0.103750X-1.285625X0.103750X1.285625X-0.103750X1.285625X0*%
%ADD20RoundRect,0.207500X1.181875X-0.207500X1.181875X0.207500X-1.181875X0.207500X-1.181875X-0.207500X0*%
%ADD21RoundRect,0.103750X1.285625X-0.103750X1.285625X0.103750X-1.285625X0.103750X-1.285625X-0.103750X0*%
%ADD22C,2.300000*%
%ADD23C,1.600000*%
%ADD24C,1.500000*%
%ADD25RoundRect,0.285000X-0.285000X-0.793750X0.285000X-0.793750X0.285000X0.793750X-0.285000X0.793750X0*%
%ADD26RoundRect,0.142500X-0.142500X-0.936250X0.142500X-0.936250X0.142500X0.936250X-0.142500X0.936250X0*%
%ADD27C,4.000000*%
%ADD28RoundRect,0.375000X-0.375000X-0.375000X0.375000X-0.375000X0.375000X0.375000X-0.375000X0.375000X0*%
%ADD29R,2.500000X5.000000*%
%ADD30R,4.400000X3.000000*%
%ADD31R,3.000000X5.000000*%
%ADD32O,1.600000X2.400000*%
G04 APERTURE END LIST*
D10*
X112100000Y-83600000D02*
X113500000Y-83600000D01*
X113500000Y-84900000D01*
X112100000Y-84900000D01*
X112100000Y-83600000D01*
G36*
X112100000Y-83600000D02*
G01*
X113500000Y-83600000D01*
X113500000Y-84900000D01*
X112100000Y-84900000D01*
X112100000Y-83600000D01*
G37*
X146100000Y-111750000D02*
X147500000Y-111750000D01*
X147500000Y-113050000D01*
X146100000Y-113050000D01*
X146100000Y-111750000D01*
G36*
X146100000Y-111750000D02*
G01*
X147500000Y-111750000D01*
X147500000Y-113050000D01*
X146100000Y-113050000D01*
X146100000Y-111750000D01*
G37*
X174500000Y-60850000D02*
X175900000Y-60850000D01*
X175900000Y-62150000D01*
X174500000Y-62150000D01*
X174500000Y-60850000D01*
G36*
X174500000Y-60850000D02*
G01*
X175900000Y-60850000D01*
X175900000Y-62150000D01*
X174500000Y-62150000D01*
X174500000Y-60850000D01*
G37*
D11*
X94837500Y-74525000D02*
G75*
G03*
X94837500Y-74525000I-537500J0D01*
G01*
D10*
X140400000Y-62350000D02*
X141800000Y-62350000D01*
X141800000Y-63650000D01*
X140400000Y-63650000D01*
X140400000Y-62350000D01*
G36*
X140400000Y-62350000D02*
G01*
X141800000Y-62350000D01*
X141800000Y-63650000D01*
X140400000Y-63650000D01*
X140400000Y-62350000D01*
G37*
X146100000Y-82050000D02*
X147500000Y-82050000D01*
X147500000Y-83350000D01*
X146100000Y-83350000D01*
X146100000Y-82050000D01*
G36*
X146100000Y-82050000D02*
G01*
X147500000Y-82050000D01*
X147500000Y-83350000D01*
X146100000Y-83350000D01*
X146100000Y-82050000D01*
G37*
X174400000Y-90350000D02*
X175800000Y-90350000D01*
X175800000Y-91650000D01*
X174400000Y-91650000D01*
X174400000Y-90350000D01*
G36*
X174400000Y-90350000D02*
G01*
X175800000Y-90350000D01*
X175800000Y-91650000D01*
X174400000Y-91650000D01*
X174400000Y-90350000D01*
G37*
D11*
X102462500Y-74525000D02*
G75*
G03*
X102462500Y-74525000I-537500J0D01*
G01*
D12*
X197027800Y-94681400D03*
X197027800Y-99761400D03*
X100962400Y-45960800D03*
X100962400Y-48500800D03*
X100962400Y-51040800D03*
X191465200Y-102225200D03*
X191465200Y-107305200D03*
X108988800Y-45960800D03*
X108988800Y-48500800D03*
X108988800Y-51040800D03*
X211658200Y-100261400D03*
X211658200Y-110261400D03*
X204258200Y-100261400D03*
X204258200Y-110261400D03*
D13*
X181120000Y-43485000D03*
D14*
X181120000Y-51955000D03*
X213140000Y-43355000D03*
D13*
X213260000Y-51955000D03*
D14*
X189040000Y-45665000D03*
X189040000Y-49665000D03*
X197090000Y-45665000D03*
X197090000Y-49665000D03*
X201090000Y-45665000D03*
X201090000Y-49665000D03*
X205090000Y-45665000D03*
X205090000Y-49665000D03*
X210515200Y-73576800D03*
X210515200Y-88576800D03*
D15*
X182628600Y-120167400D03*
X180128600Y-120167400D03*
X177628600Y-120167400D03*
X175128600Y-120167400D03*
X172628600Y-120167400D03*
X170128600Y-120167400D03*
X167628600Y-120167400D03*
X165128600Y-120167400D03*
X162628600Y-120167400D03*
X160128600Y-120167400D03*
X157628600Y-120167400D03*
X155128600Y-120167400D03*
X152628600Y-120167400D03*
X150128600Y-120167400D03*
X147628600Y-120167400D03*
X145128600Y-120167400D03*
X142628600Y-120167400D03*
X140128600Y-120167400D03*
X137628600Y-120167400D03*
X135128600Y-120167400D03*
X132628600Y-120167400D03*
D12*
X117015200Y-45960800D03*
X117015200Y-48500800D03*
X117015200Y-51040800D03*
X194421000Y-59095000D03*
X194421000Y-61635000D03*
D16*
X212471000Y-61595000D03*
D12*
X194421000Y-64175000D03*
D17*
X94466400Y-60553600D03*
X99466400Y-60553600D03*
D12*
X126963482Y-118897400D03*
X126963482Y-123977400D03*
X196977000Y-104765200D03*
X196977000Y-109845200D03*
D15*
X181398600Y-123926600D03*
X178898600Y-123926600D03*
X176398600Y-123926600D03*
X173898600Y-123926600D03*
X171398600Y-123926600D03*
X168898600Y-123926600D03*
X166398600Y-123926600D03*
X163898600Y-123926600D03*
X161398600Y-123926600D03*
X158898600Y-123926600D03*
X156398600Y-123926600D03*
X153898600Y-123926600D03*
X151398600Y-123926600D03*
X148898600Y-123926600D03*
X146398600Y-123926600D03*
X143898600Y-123926600D03*
X141398600Y-123926600D03*
X138898600Y-123926600D03*
X136398600Y-123926600D03*
X133898600Y-123926600D03*
X131398600Y-123926600D03*
D12*
X125552200Y-105791000D03*
X125552200Y-108331000D03*
X125552200Y-110871000D03*
D13*
X89852200Y-114031000D03*
X110992200Y-95521000D03*
X110992200Y-126231000D03*
D12*
X114438118Y-129006600D03*
X114438118Y-134086600D03*
X130886200Y-111302800D03*
X130886200Y-106222800D03*
D18*
X117642600Y-82836000D03*
D19*
X118582600Y-82836000D03*
X119382600Y-82836000D03*
X120182600Y-82836000D03*
X120982600Y-82836000D03*
X121782600Y-82836000D03*
X122582600Y-82836000D03*
X123382600Y-82836000D03*
X124182600Y-82836000D03*
X124982600Y-82836000D03*
X125782600Y-82836000D03*
X126582600Y-82836000D03*
X127382600Y-82836000D03*
X128182600Y-82836000D03*
X128982600Y-82836000D03*
X129782600Y-82836000D03*
X130582600Y-82836000D03*
X131382600Y-82836000D03*
X132182600Y-82836000D03*
X132982600Y-82836000D03*
X133782600Y-82836000D03*
X134582600Y-82836000D03*
X135382600Y-82836000D03*
D18*
X136362600Y-82836000D03*
D20*
X139212600Y-79756000D03*
D21*
X139212600Y-78816000D03*
X139212600Y-78016000D03*
X139212600Y-77216000D03*
X139212600Y-76416000D03*
X139212600Y-75616000D03*
X139212600Y-74816000D03*
X139212600Y-74016000D03*
X139212600Y-73216000D03*
X139212600Y-72416000D03*
X139212600Y-71616000D03*
X139212600Y-70816000D03*
X139212600Y-70016000D03*
X139212600Y-69216000D03*
X139212600Y-68416000D03*
D20*
X139212600Y-67416000D03*
D18*
X136362600Y-64296000D03*
D19*
X135382600Y-64296000D03*
X134582600Y-64296000D03*
X133782600Y-64296000D03*
X132982600Y-64296000D03*
X132182600Y-64296000D03*
X131382600Y-64296000D03*
X130582600Y-64296000D03*
X129782600Y-64296000D03*
X128982600Y-64296000D03*
X128182600Y-64296000D03*
X127382600Y-64296000D03*
X126582600Y-64296000D03*
X125782600Y-64296000D03*
X124982600Y-64296000D03*
X124182600Y-64296000D03*
X123382600Y-64296000D03*
X122582600Y-64296000D03*
X121782600Y-64296000D03*
X120982600Y-64296000D03*
X120182600Y-64296000D03*
X119382600Y-64296000D03*
X118582600Y-64296000D03*
D18*
X117642600Y-64296000D03*
D20*
X114782600Y-67416000D03*
D21*
X114782600Y-68416000D03*
X114782600Y-69216000D03*
X114782600Y-70016000D03*
X114782600Y-70816000D03*
X114782600Y-71616000D03*
X114782600Y-72416000D03*
X114782600Y-73216000D03*
X114782600Y-74016000D03*
X114782600Y-74816000D03*
X114782600Y-75616000D03*
X114782600Y-76416000D03*
X114782600Y-77216000D03*
X114782600Y-78016000D03*
X114782600Y-78816000D03*
D20*
X114782600Y-79756000D03*
D12*
X197016682Y-84683600D03*
X197016682Y-89763600D03*
D22*
X204495400Y-93699000D03*
X204495400Y-73499000D03*
D23*
X101950000Y-82240000D03*
X101950000Y-67000000D03*
X94330000Y-67000000D03*
X94330000Y-82240000D03*
D12*
X209499200Y-126456800D03*
X209499200Y-131536800D03*
D24*
X105638600Y-37479600D03*
X108288600Y-37479600D03*
X103538600Y-37479600D03*
X105638600Y-39979600D03*
X110338600Y-37479600D03*
X103538600Y-39979600D03*
X107838600Y-39979600D03*
X110338600Y-39979600D03*
D18*
X151677000Y-110928400D03*
D19*
X152617000Y-110928400D03*
X153417000Y-110928400D03*
X154217000Y-110928400D03*
X155017000Y-110928400D03*
X155817000Y-110928400D03*
X156617000Y-110928400D03*
X157417000Y-110928400D03*
X158217000Y-110928400D03*
X159017000Y-110928400D03*
X159817000Y-110928400D03*
X160617000Y-110928400D03*
X161417000Y-110928400D03*
X162217000Y-110928400D03*
X163017000Y-110928400D03*
X163817000Y-110928400D03*
X164617000Y-110928400D03*
X165417000Y-110928400D03*
X166217000Y-110928400D03*
X167017000Y-110928400D03*
X167817000Y-110928400D03*
X168617000Y-110928400D03*
X169417000Y-110928400D03*
D18*
X170397000Y-110928400D03*
D20*
X173247000Y-107848400D03*
D21*
X173247000Y-106908400D03*
X173247000Y-106108400D03*
X173247000Y-105308400D03*
X173247000Y-104508400D03*
X173247000Y-103708400D03*
X173247000Y-102908400D03*
X173247000Y-102108400D03*
X173247000Y-101308400D03*
X173247000Y-100508400D03*
X173247000Y-99708400D03*
X173247000Y-98908400D03*
X173247000Y-98108400D03*
X173247000Y-97308400D03*
X173247000Y-96508400D03*
D20*
X173247000Y-95508400D03*
D18*
X170397000Y-92388400D03*
D19*
X169417000Y-92388400D03*
X168617000Y-92388400D03*
X167817000Y-92388400D03*
X167017000Y-92388400D03*
X166217000Y-92388400D03*
X165417000Y-92388400D03*
X164617000Y-92388400D03*
X163817000Y-92388400D03*
X163017000Y-92388400D03*
X162217000Y-92388400D03*
X161417000Y-92388400D03*
X160617000Y-92388400D03*
X159817000Y-92388400D03*
X159017000Y-92388400D03*
X158217000Y-92388400D03*
X157417000Y-92388400D03*
X156617000Y-92388400D03*
X155817000Y-92388400D03*
X155017000Y-92388400D03*
X154217000Y-92388400D03*
X153417000Y-92388400D03*
X152617000Y-92388400D03*
D18*
X151677000Y-92388400D03*
D20*
X148817000Y-95508400D03*
D21*
X148817000Y-96508400D03*
X148817000Y-97308400D03*
X148817000Y-98108400D03*
X148817000Y-98908400D03*
X148817000Y-99708400D03*
X148817000Y-100508400D03*
X148817000Y-101308400D03*
X148817000Y-102108400D03*
X148817000Y-102908400D03*
X148817000Y-103708400D03*
X148817000Y-104508400D03*
X148817000Y-105308400D03*
X148817000Y-106108400D03*
X148817000Y-106908400D03*
D20*
X148817000Y-107848400D03*
D12*
X104975600Y-45960800D03*
X104975600Y-48500800D03*
X104975600Y-51040800D03*
X202031600Y-114874400D03*
X202031600Y-119954400D03*
X197027800Y-74615400D03*
X197027800Y-79695400D03*
D25*
X154531400Y-47447200D03*
D26*
X155981400Y-47448450D03*
X157251400Y-47448450D03*
X158521400Y-47448450D03*
X159791400Y-47448450D03*
X161061400Y-47448450D03*
X162331400Y-47448450D03*
X163601400Y-47448450D03*
X164871400Y-47448450D03*
X166141400Y-47448450D03*
X167411400Y-47448450D03*
X168681400Y-47448450D03*
X169951400Y-47448450D03*
D25*
X171461400Y-47447200D03*
X171461400Y-36577200D03*
D26*
X169951400Y-36578450D03*
X168681400Y-36578450D03*
X167411400Y-36578450D03*
X166141400Y-36578450D03*
X164871400Y-36578450D03*
X163601400Y-36578450D03*
X162331400Y-36578450D03*
X161061400Y-36578450D03*
X159791400Y-36578450D03*
X158521400Y-36578450D03*
X157251400Y-36578450D03*
X155981400Y-36578450D03*
D25*
X154531400Y-36577200D03*
D12*
X113002000Y-45960800D03*
X113002000Y-48500800D03*
X113002000Y-51040800D03*
X101244400Y-87071200D03*
X96164400Y-87071200D03*
X92936000Y-45960800D03*
X92936000Y-48500800D03*
X92936000Y-51040800D03*
X205511400Y-120707800D03*
X205511400Y-113207800D03*
X185420000Y-102199800D03*
X185420000Y-107279800D03*
X186983682Y-58623200D03*
X186983682Y-63703200D03*
X185420000Y-92141400D03*
X185420000Y-97221400D03*
D27*
X119150000Y-141132400D03*
X185110000Y-141132400D03*
D28*
X124160000Y-143722400D03*
X126700000Y-143722400D03*
X129240000Y-143722400D03*
X131780000Y-143722400D03*
X134320000Y-143722400D03*
X136860000Y-143722400D03*
X139400000Y-143722400D03*
X141940000Y-143722400D03*
X144480000Y-143722400D03*
X147020000Y-143722400D03*
X149560000Y-143722400D03*
X152100000Y-143722400D03*
X154640000Y-143722400D03*
X157180000Y-143722400D03*
X159720000Y-143722400D03*
X162260000Y-143722400D03*
X164800000Y-143722400D03*
X167340000Y-143722400D03*
X169880000Y-143722400D03*
X172420000Y-143722400D03*
X174960000Y-143722400D03*
X177500000Y-143722400D03*
X180040000Y-143722400D03*
X124160000Y-141112400D03*
X126700000Y-141112400D03*
X129240000Y-141112400D03*
X131780000Y-141112400D03*
X134320000Y-141112400D03*
X136860000Y-141112400D03*
X139400000Y-141112400D03*
X141940000Y-141112400D03*
X144480000Y-141112400D03*
X147020000Y-141112400D03*
X149560000Y-141112400D03*
X152100000Y-141112400D03*
X154640000Y-141112400D03*
X157180000Y-141112400D03*
X159720000Y-141112400D03*
X162260000Y-141112400D03*
X164800000Y-141112400D03*
X167340000Y-141112400D03*
X169880000Y-141112400D03*
X172420000Y-141112400D03*
X174960000Y-141112400D03*
X177500000Y-141112400D03*
X180040000Y-141112400D03*
X124160000Y-138532400D03*
X126700000Y-138532400D03*
X129240000Y-138532400D03*
X131780000Y-138532400D03*
X134320000Y-138532400D03*
X136860000Y-138532400D03*
X139400000Y-138532400D03*
X141940000Y-138532400D03*
X144480000Y-138532400D03*
X147020000Y-138532400D03*
X149560000Y-138532400D03*
X152100000Y-138532400D03*
X154640000Y-138532400D03*
X157180000Y-138532400D03*
X159720000Y-138532400D03*
X162260000Y-138532400D03*
X164800000Y-138532400D03*
X167340000Y-138532400D03*
X169880000Y-138532400D03*
X172420000Y-138532400D03*
X174960000Y-138532400D03*
X177500000Y-138532400D03*
X180040000Y-138532400D03*
D12*
X94386400Y-55549800D03*
X99466400Y-55549800D03*
X180989282Y-56083200D03*
X180989282Y-61163200D03*
X121945000Y-131500000D03*
X124485000Y-131500000D03*
X127025000Y-131500000D03*
X195949882Y-114858800D03*
X195949882Y-119938800D03*
D18*
X151663200Y-81388200D03*
D19*
X152603200Y-81388200D03*
X153403200Y-81388200D03*
X154203200Y-81388200D03*
X155003200Y-81388200D03*
X155803200Y-81388200D03*
X156603200Y-81388200D03*
X157403200Y-81388200D03*
X158203200Y-81388200D03*
X159003200Y-81388200D03*
X159803200Y-81388200D03*
X160603200Y-81388200D03*
X161403200Y-81388200D03*
X162203200Y-81388200D03*
X163003200Y-81388200D03*
X163803200Y-81388200D03*
X164603200Y-81388200D03*
X165403200Y-81388200D03*
X166203200Y-81388200D03*
X167003200Y-81388200D03*
X167803200Y-81388200D03*
X168603200Y-81388200D03*
X169403200Y-81388200D03*
D18*
X170383200Y-81388200D03*
D20*
X173233200Y-78308200D03*
D21*
X173233200Y-77368200D03*
X173233200Y-76568200D03*
X173233200Y-75768200D03*
X173233200Y-74968200D03*
X173233200Y-74168200D03*
X173233200Y-73368200D03*
X173233200Y-72568200D03*
X173233200Y-71768200D03*
X173233200Y-70968200D03*
X173233200Y-70168200D03*
X173233200Y-69368200D03*
X173233200Y-68568200D03*
X173233200Y-67768200D03*
X173233200Y-66968200D03*
D20*
X173233200Y-65968200D03*
D18*
X170383200Y-62848200D03*
D19*
X169403200Y-62848200D03*
X168603200Y-62848200D03*
X167803200Y-62848200D03*
X167003200Y-62848200D03*
X166203200Y-62848200D03*
X165403200Y-62848200D03*
X164603200Y-62848200D03*
X163803200Y-62848200D03*
X163003200Y-62848200D03*
X162203200Y-62848200D03*
X161403200Y-62848200D03*
X160603200Y-62848200D03*
X159803200Y-62848200D03*
X159003200Y-62848200D03*
X158203200Y-62848200D03*
X157403200Y-62848200D03*
X156603200Y-62848200D03*
X155803200Y-62848200D03*
X155003200Y-62848200D03*
X154203200Y-62848200D03*
X153403200Y-62848200D03*
X152603200Y-62848200D03*
D18*
X151663200Y-62848200D03*
D20*
X148803200Y-65968200D03*
D21*
X148803200Y-66968200D03*
X148803200Y-67768200D03*
X148803200Y-68568200D03*
X148803200Y-69368200D03*
X148803200Y-70168200D03*
X148803200Y-70968200D03*
X148803200Y-71768200D03*
X148803200Y-72568200D03*
X148803200Y-73368200D03*
X148803200Y-74168200D03*
X148803200Y-74968200D03*
X148803200Y-75768200D03*
X148803200Y-76568200D03*
X148803200Y-77368200D03*
D20*
X148803200Y-78308200D03*
D12*
X96949200Y-45960800D03*
X96949200Y-48500800D03*
X96949200Y-51040800D03*
D25*
X129018400Y-51484600D03*
D26*
X130468400Y-51485850D03*
X131738400Y-51485850D03*
X133008400Y-51485850D03*
X134278400Y-51485850D03*
X135548400Y-51485850D03*
X136818400Y-51485850D03*
X138088400Y-51485850D03*
X139358400Y-51485850D03*
X140628400Y-51485850D03*
X141898400Y-51485850D03*
X143168400Y-51485850D03*
X144438400Y-51485850D03*
D25*
X145948400Y-51484600D03*
X145948400Y-40614600D03*
D26*
X144438400Y-40615850D03*
X143168400Y-40615850D03*
X141898400Y-40615850D03*
X140628400Y-40615850D03*
X139358400Y-40615850D03*
X138088400Y-40615850D03*
X136818400Y-40615850D03*
X135548400Y-40615850D03*
X134278400Y-40615850D03*
X133008400Y-40615850D03*
X131738400Y-40615850D03*
X130468400Y-40615850D03*
D25*
X129018400Y-40614600D03*
D29*
X207987200Y-119050600D03*
D30*
X210987200Y-114200600D03*
D31*
X213987200Y-119100600D03*
D32*
X193522600Y-144043400D03*
X196062600Y-144043400D03*
X198602600Y-144043400D03*
X201142600Y-144043400D03*
X201142600Y-136423400D03*
X198602600Y-136423400D03*
X196062600Y-136423400D03*
X193522600Y-136423400D03*
D12*
X191490600Y-92192200D03*
X191490600Y-97272200D03*
X118450000Y-39980000D03*
X123530000Y-39980000D03*
M02*
