M48
; DRILL file {KiCad 7.0.2-0} date 2023 August 25, Friday 16:22:09
; FORMAT={-:-/ absolute / metric / decimal}
; #@! TF.CreationDate,2023-08-25T16:22:09+02:00
; #@! TF.GenerationSoftware,Kicad,Pcbnew,7.0.2-0
; #@! TF.FileFunction,Plated,1,2,PTH
FMAT,2
METRIC
; #@! TA.AperFunction,Plated,PTH,ViaDrill
T1C0.400
; #@! TA.AperFunction,Plated,PTH,ComponentDrill
T2C0.800
; #@! TA.AperFunction,Plated,PTH,ComponentDrill
T3C0.900
; #@! TA.AperFunction,Plated,PTH,ComponentDrill
T4C1.000
; #@! TA.AperFunction,Plated,PTH,ComponentDrill
T5C1.100
; #@! TA.AperFunction,Plated,PTH,ComponentDrill
T6C1.200
; #@! TA.AperFunction,Plated,PTH,ComponentDrill
T7C1.500
; #@! TA.AperFunction,Plated,PTH,ComponentDrill
T8C1.700
; #@! TA.AperFunction,Plated,PTH,ComponentDrill
T9C1.800
; #@! TA.AperFunction,Plated,PTH,ComponentDrill
T10C2.200
; #@! TA.AperFunction,Plated,PTH,ComponentDrill
T11C3.000
; #@! TA.AperFunction,Plated,PTH,ComponentDrill
T12C3.500
%
G90
G05
T1
X89.433Y-51.562
X90.856Y-91.161
X90.881Y-87.122
X90.881Y-89.154
X91.897Y-86.131
X91.897Y-88.163
X91.897Y-90.195
X91.923Y-79.553
X92.1Y-146.3
X96.9Y-79.45
X96.926Y-145.618
X97.15Y-151.3
X98.3Y-146.55
X98.825Y-148.075
X99.39Y-72.339
X99.39Y-75.844
X101.93Y-74.5
X106.451Y-67.056
X106.934Y-65.557
X107.42Y-61.036
X108.941Y-61.036
X110.49Y-61.57
X112.014Y-61.036
X112.98Y-140.11
X112.98Y-142.63
X114.96Y-84.099
X114.96Y-87.147
X114.986Y-82.067
X116.51Y-87.122
X117.99Y-79.68
X118.008Y-87.605
X118.466Y-128.395
X118.466Y-131.775
X119.99Y-71.9
X120.03Y-80.17
X120.05Y-68.37
X121.15Y-144.094
X122.5Y-60.11
X123.52Y-61.112
X124.209Y-101.143
X124.259Y-68.097
X124.259Y-79.07
X124.37Y-114.86
X124.48Y-60.12
X125.04Y-88.087
X125.51Y-61.14
X125.93Y-46.62
X126.441Y-36.83
X126.46Y-60.14
X126.89Y-47.61
X127.43Y-52.56
X127.432Y-135.534
X127.47Y-61.1
X127.52Y-88.19
X127.63Y-68.16
X127.759Y-79.07
X127.89Y-45.05
X128.4Y-128.325
X128.473Y-90.536
X129.41Y-58.12
X129.43Y-59.6
X130.454Y-48.634
X130.454Y-98.679
X130.468Y-42.972
X130.48Y-97.2
X130.505Y-100.178
X130.51Y-78.63
X130.95Y-129.85
X130.962Y-90.536
X131.94Y-68.61
X131.953Y-43.51
X131.96Y-70.64
X131.97Y-75.63
X132.92Y-69.6
X132.95Y-76.64
X132.97Y-71.61
X132.97Y-74.62
X133.452Y-90.536
X133.94Y-79.14
X134.43Y-61.12
X134.442Y-44.018
X134.925Y-116.84
X135.89Y-61.12
X135.96Y-72.59
X135.966Y-43.002
X135.98Y-90.424
X136.02Y-74.61
X136.449Y-116.84
X136.47Y-97.2
X136.49Y-98.69
X136.498Y-100.178
X136.931Y-109.25
X136.982Y-44.044
X136.982Y-106.242
X136.982Y-107.772
X137.36Y-61.13
X138.379Y-90.534
X138.455Y-43.028
X138.5Y-82.13
X138.9Y-60.6
X139.446Y-44.044
X139.47Y-95.66
X140.38Y-60.62
X140.425Y-98.9
X140.425Y-101.95
X140.843Y-90.526
X140.945Y-43.028
X141.898Y-54.082
X141.91Y-108.712
X141.961Y-44.044
X142.45Y-82.63
X142.48Y-107.24
X142.951Y-55.009
X143.459Y-43.028
X144.438Y-54.062
X144.45Y-43.993
X144.52Y-112.26
X145.39Y-98.704
X145.415Y-95.707
X145.415Y-97.18
X145.415Y-100.203
X145.415Y-101.73
X145.45Y-103.19
X145.9Y-110.72
X145.948Y-42.952
X145.97Y-94.16
X146.89Y-54.08
X147.49Y-93.66
X148.5Y-90.64
X148.946Y-93.18
X149.03Y-80.15
X149.936Y-109.779
X150.0Y-90.16
X151.43Y-66.59
X151.435Y-99.67
X151.435Y-101.244
X151.435Y-107.772
X151.5Y-74.63
X151.917Y-102.718
X152.03Y-43.55
X152.54Y-78.64
X152.933Y-99.695
X152.933Y-105.207
X152.959Y-85.88
X152.99Y-74.61
X153.48Y-66.6
X153.975Y-113.75
X154.0Y-78.61
X154.432Y-99.695
X154.432Y-105.766
X154.534Y-34.773
X154.96Y-66.55
X155.0Y-89.62
X155.01Y-88.11
X155.016Y-69.319
X155.016Y-72.819
X155.41Y-57.02
X155.956Y-95.199
X155.981Y-106.223
X155.99Y-78.1
X156.0Y-76.63
X156.53Y-99.63
X157.45Y-114.025
X157.455Y-106.756
X157.505Y-95.215
X158.5Y-78.09
X158.51Y-75.09
X158.521Y-99.162
X158.53Y-66.57
X158.53Y-76.62
X158.975Y-115.35
X159.004Y-95.174
X159.537Y-97.663
X160.47Y-57.03
X160.5Y-106.2
X160.975Y-113.775
X160.99Y-66.58
X161.0Y-78.11
X161.04Y-75.08
X161.04Y-76.64
X163.44Y-66.61
X163.525Y-77.8
X164.07Y-99.29
X165.03Y-86.64
X165.53Y-78.15
X165.53Y-85.11
X166.5Y-57.1
X166.51Y-66.61
X166.58Y-98.12
X166.779Y-60.046
X167.06Y-78.08
X167.513Y-50.038
X168.06Y-108.17
X168.986Y-50.038
X169.012Y-97.361
X169.012Y-100.861
X169.062Y-66.291
X169.469Y-108.15
X169.47Y-84.11
X169.977Y-103.632
X170.002Y-105.156
X170.434Y-73.99
X170.44Y-68.03
X170.45Y-78.08
X170.485Y-50.038
X170.485Y-95.58
X170.485Y-107.26
X170.93Y-57.51
X170.993Y-84.201
X171.31Y-44.43
X171.983Y-86.665
X172.4Y-57.5
X173.44Y-82.61
X173.482Y-86.182
X173.53Y-109.1
X174.523Y-64.084
X174.549Y-147.98
X174.97Y-82.6
X175.61Y-150.139
X175.93Y-67.02
X175.946Y-97.155
X175.946Y-103.2
X175.98Y-70.129
X175.98Y-85.07
X175.997Y-65.608
X175.997Y-68.631
X176.47Y-78.55
X176.5Y-74.06
X176.505Y-72.136
X176.555Y-75.641
X176.933Y-126.387
X177.47Y-115.265
X178.42Y-67.47
X178.43Y-65.0
X178.46Y-108.59
X178.5Y-102.78
X178.892Y-132.944
X179.45Y-109.61
X179.451Y-117.805
X180.97Y-109.6
X181.9Y-154.1
X182.372Y-102.133
X182.46Y-109.63
X182.5Y-84.2
X182.524Y-148.438
X182.827Y-130.3
X182.95Y-128.8
X182.975Y-68.125
X184.45Y-68.125
X185.425Y-132.75
X185.425Y-134.475
X186.02Y-115.22
X186.375Y-84.2
X186.409Y-151.151
X187.01Y-116.23
X188.0Y-115.2
X188.443Y-111.785
X188.9Y-147.902
X189.0Y-77.275
X189.01Y-116.23
X190.03Y-117.24
X190.51Y-109.63
X190.95Y-84.125
X190.99Y-112.17
X191.02Y-116.21
X191.414Y-147.902
X191.525Y-77.275
X192.989Y-153.619
X192.99Y-112.18
X193.015Y-140.538
X193.025Y-89.6
X193.929Y-147.905
X194.412Y-129.085
X196.444Y-140.894
X197.0Y-134.35
X198.45Y-102.7
X200.533Y-127.483
X201.47Y-147.905
X202.0Y-139.85
X202.997Y-141.35
X203.98Y-147.905
X203.98Y-151.13
X204.75Y-33.45
X204.75Y-38.45
X204.978Y-136.879
X206.019Y-127.483
X206.5Y-134.85
X207.1Y-151.3
X212.1Y-146.225
X213.03Y-125.908
T2
X94.33Y-67.0
X94.33Y-82.24
X101.95Y-67.0
X101.95Y-82.24
X193.523Y-136.423
X193.523Y-144.043
X196.063Y-136.423
X196.063Y-144.043
X198.603Y-136.423
X198.603Y-144.043
X201.143Y-136.423
X201.143Y-144.043
T3
X94.466Y-60.554
X99.466Y-60.554
X103.539Y-37.48
X103.539Y-39.98
X105.639Y-37.48
X105.639Y-39.98
X107.839Y-39.98
X108.289Y-37.48
X110.339Y-37.48
X110.339Y-39.98
X124.16Y-138.532
X124.16Y-141.112
X124.16Y-143.722
X126.7Y-138.532
X126.7Y-141.112
X126.7Y-143.722
X129.24Y-138.532
X129.24Y-141.112
X129.24Y-143.722
X131.78Y-138.532
X131.78Y-141.112
X131.78Y-143.722
X134.32Y-138.532
X134.32Y-141.112
X134.32Y-143.722
X136.86Y-138.532
X136.86Y-141.112
X136.86Y-143.722
X139.4Y-138.532
X139.4Y-141.112
X139.4Y-143.722
X141.94Y-138.532
X141.94Y-141.112
X141.94Y-143.722
X144.48Y-138.532
X144.48Y-141.112
X144.48Y-143.722
X147.02Y-138.532
X147.02Y-141.112
X147.02Y-143.722
X149.56Y-138.532
X149.56Y-141.112
X149.56Y-143.722
X152.1Y-138.532
X152.1Y-141.112
X152.1Y-143.722
X154.64Y-138.532
X154.64Y-141.112
X154.64Y-143.722
X157.18Y-138.532
X157.18Y-141.112
X157.18Y-143.722
X159.72Y-138.532
X159.72Y-141.112
X159.72Y-143.722
X162.26Y-138.532
X162.26Y-141.112
X162.26Y-143.722
X164.8Y-138.532
X164.8Y-141.112
X164.8Y-143.722
X167.34Y-138.532
X167.34Y-141.112
X167.34Y-143.722
X169.88Y-138.532
X169.88Y-141.112
X169.88Y-143.722
X172.42Y-138.532
X172.42Y-141.112
X172.42Y-143.722
X174.96Y-138.532
X174.96Y-141.112
X174.96Y-143.722
X177.5Y-138.532
X177.5Y-141.112
X177.5Y-143.722
X180.04Y-138.532
X180.04Y-141.112
X180.04Y-143.722
T4
X131.399Y-123.927
X132.629Y-120.167
X133.899Y-123.927
X135.129Y-120.167
X136.399Y-123.927
X137.629Y-120.167
X138.899Y-123.927
X140.129Y-120.167
X141.399Y-123.927
X142.629Y-120.167
X143.899Y-123.927
X145.129Y-120.167
X146.399Y-123.927
X147.629Y-120.167
X148.899Y-123.927
X150.129Y-120.167
X151.399Y-123.927
X152.629Y-120.167
X153.899Y-123.927
X155.129Y-120.167
X156.399Y-123.927
X157.629Y-120.167
X158.899Y-123.927
X160.129Y-120.167
X161.399Y-123.927
X162.629Y-120.167
X163.899Y-123.927
X165.129Y-120.167
X166.399Y-123.927
X167.629Y-120.167
X168.899Y-123.927
X170.129Y-120.167
X171.399Y-123.927
X172.629Y-120.167
X173.899Y-123.927
X175.129Y-120.167
X176.399Y-123.927
X177.629Y-120.167
X178.899Y-123.927
X180.129Y-120.167
X181.399Y-123.927
X182.629Y-120.167
T5
X204.258Y-100.261
X204.258Y-110.261
X211.658Y-100.261
X211.658Y-110.261
T6
X92.936Y-45.961
X92.936Y-48.501
X92.936Y-51.041
X94.386Y-55.55
X96.164Y-87.071
X96.949Y-45.961
X96.949Y-48.501
X96.949Y-51.041
X99.466Y-55.55
X100.962Y-45.961
X100.962Y-48.501
X100.962Y-51.041
X101.244Y-87.071
X104.976Y-45.961
X104.976Y-48.501
X104.976Y-51.041
X108.989Y-45.961
X108.989Y-48.501
X108.989Y-51.041
X113.002Y-45.961
X113.002Y-48.501
X113.002Y-51.041
X114.438Y-129.007
X114.438Y-134.087
X117.015Y-45.961
X117.015Y-48.501
X117.015Y-51.041
X118.45Y-39.98
X121.945Y-131.5
X123.53Y-39.98
X124.485Y-131.5
X125.552Y-105.791
X125.552Y-108.331
X125.552Y-110.871
X126.963Y-118.897
X126.963Y-123.977
X127.025Y-131.5
X130.886Y-106.223
X130.886Y-111.303
X180.989Y-56.083
X180.989Y-61.163
X185.42Y-92.141
X185.42Y-97.221
X185.42Y-102.2
X185.42Y-107.28
X186.984Y-58.623
X186.984Y-63.703
X191.465Y-102.225
X191.465Y-107.305
X191.491Y-92.192
X191.491Y-97.272
X194.421Y-59.095
X194.421Y-61.635
X194.421Y-64.175
X195.95Y-114.859
X195.95Y-119.939
X196.977Y-104.765
X196.977Y-109.845
X197.017Y-84.684
X197.017Y-89.764
X197.028Y-74.615
X197.028Y-79.695
X197.028Y-94.681
X197.028Y-99.761
X202.032Y-114.874
X202.032Y-119.954
X204.495Y-73.499
X204.495Y-93.699
X205.511Y-113.208
X205.511Y-120.708
X209.499Y-126.457
X209.499Y-131.537
T7
X210.515Y-73.577
X210.515Y-88.577
T8
X181.12Y-43.485
X181.12Y-51.955
X213.14Y-43.355
X213.26Y-51.955
T9
X189.04Y-45.665
X189.04Y-49.665
X197.09Y-45.665
X197.09Y-49.665
X201.09Y-45.665
X201.09Y-49.665
X205.09Y-45.665
X205.09Y-49.665
T10
X89.852Y-114.031
X110.992Y-95.521
X110.992Y-126.231
T11
X119.15Y-141.132
X185.11Y-141.132
T12
X212.471Y-61.595
T4
X207.987Y-117.551G85X207.987Y-120.551
G05
X209.487Y-114.201G85X212.487Y-114.201
G05
X213.987Y-117.601G85X213.987Y-120.601
G05
T0
M30
