G04 #@! TF.GenerationSoftware,KiCad,Pcbnew,7.0.2-0*
G04 #@! TF.CreationDate,2023-08-25T16:22:02+02:00*
G04 #@! TF.ProjectId,PCE,5043452e-6b69-4636-9164-5f7063625858,rev?*
G04 #@! TF.SameCoordinates,Original*
G04 #@! TF.FileFunction,Soldermask,Bot*
G04 #@! TF.FilePolarity,Negative*
%FSLAX46Y46*%
G04 Gerber Fmt 4.6, Leading zero omitted, Abs format (unit mm)*
G04 Created by KiCad (PCBNEW 7.0.2-0) date 2023-08-25 16:22:02*
%MOMM*%
%LPD*%
G01*
G04 APERTURE LIST*
G04 Aperture macros list*
%AMRoundRect*
0 Rectangle with rounded corners*
0 $1 Rounding radius*
0 $2 $3 $4 $5 $6 $7 $8 $9 X,Y pos of 4 corners*
0 Add a 4 corners polygon primitive as box body*
4,1,4,$2,$3,$4,$5,$6,$7,$8,$9,$2,$3,0*
0 Add four circle primitives for the rounded corners*
1,1,$1+$1,$2,$3*
1,1,$1+$1,$4,$5*
1,1,$1+$1,$6,$7*
1,1,$1+$1,$8,$9*
0 Add four rect primitives between the rounded corners*
20,1,$1+$1,$2,$3,$4,$5,0*
20,1,$1+$1,$4,$5,$6,$7,0*
20,1,$1+$1,$6,$7,$8,$9,0*
20,1,$1+$1,$8,$9,$2,$3,0*%
G04 Aperture macros list end*
%ADD10C,0.150000*%
%ADD11C,0.000000*%
%ADD12C,1.075000*%
%ADD13C,2.000000*%
%ADD14C,0.600000*%
%ADD15C,0.750000*%
%ADD16C,2.000000*%
%ADD17C,3.500000*%
%ADD18C,3.000000*%
%ADD19O,1.700000X1.700000*%
%ADD20C,6.000000*%
%ADD21C,1.900000*%
%ADD22C,2.300000*%
%ADD23C,1.600000*%
%ADD24C,1.500000*%
%ADD25C,4.000000*%
%ADD26RoundRect,0.375000X-0.375000X-0.375000X0.375000X-0.375000X0.375000X0.375000X-0.375000X0.375000X0*%
%ADD27R,2.500000X5.000000*%
%ADD28R,4.400000X3.000000*%
%ADD29R,3.000000X5.000000*%
%ADD30O,1.600000X2.400000*%
%ADD31RoundRect,0.250000X0.550000X-0.325000X0.550000X0.325000X-0.550000X0.325000X-0.550000X-0.325000X0*%
%ADD32RoundRect,0.326087X0.473913X-0.423913X0.473913X0.423913X-0.473913X0.423913X-0.473913X-0.423913X0*%
%ADD33RoundRect,0.326087X-0.473913X0.423913X-0.473913X-0.423913X0.473913X-0.423913X0.473913X0.423913X0*%
%ADD34RoundRect,0.326087X0.423913X0.473913X-0.423913X0.473913X-0.423913X-0.473913X0.423913X-0.473913X0*%
%ADD35RoundRect,0.250000X-0.550000X0.325000X-0.550000X-0.325000X0.550000X-0.325000X0.550000X0.325000X0*%
%ADD36RoundRect,0.300000X0.300000X-0.500000X0.300000X0.500000X-0.300000X0.500000X-0.300000X-0.500000X0*%
%ADD37RoundRect,0.300000X0.300000X-0.700000X0.300000X0.700000X-0.300000X0.700000X-0.300000X-0.700000X0*%
%ADD38RoundRect,0.326087X-0.423913X-0.473913X0.423913X-0.473913X0.423913X0.473913X-0.423913X0.473913X0*%
%ADD39RoundRect,0.250000X0.325000X0.550000X-0.325000X0.550000X-0.325000X-0.550000X0.325000X-0.550000X0*%
%ADD40RoundRect,0.300000X-0.300000X0.700000X-0.300000X-0.700000X0.300000X-0.700000X0.300000X0.700000X0*%
%ADD41RoundRect,0.300000X-0.300000X0.500000X-0.300000X-0.500000X0.300000X-0.500000X0.300000X0.500000X0*%
G04 APERTURE END LIST*
D10*
X103500000Y-56050000D02*
X110450000Y-56050000D01*
X110450000Y-58150000D01*
X103500000Y-58150000D01*
X103500000Y-56050000D01*
G36*
X103500000Y-56050000D02*
G01*
X110450000Y-56050000D01*
X110450000Y-58150000D01*
X103500000Y-58150000D01*
X103500000Y-56050000D01*
G37*
X98800000Y-32300000D02*
X101675000Y-32300000D01*
X101675000Y-36450000D01*
X98800000Y-36450000D01*
X98800000Y-32300000D01*
G36*
X98800000Y-32300000D02*
G01*
X101675000Y-32300000D01*
X101675000Y-36450000D01*
X98800000Y-36450000D01*
X98800000Y-32300000D01*
G37*
X104900000Y-32225000D02*
X109050000Y-32225000D01*
X109050000Y-35100000D01*
X104900000Y-35100000D01*
X104900000Y-32225000D01*
G36*
X104900000Y-32225000D02*
G01*
X109050000Y-32225000D01*
X109050000Y-35100000D01*
X104900000Y-35100000D01*
X104900000Y-32225000D01*
G37*
X112350000Y-32300000D02*
X115225000Y-32300000D01*
X115225000Y-36450000D01*
X112350000Y-36450000D01*
X112350000Y-32300000D01*
G36*
X112350000Y-32300000D02*
G01*
X115225000Y-32300000D01*
X115225000Y-36450000D01*
X112350000Y-36450000D01*
X112350000Y-32300000D01*
G37*
G36*
X165775000Y-132900000D02*
G01*
X171225000Y-132900000D01*
X171225000Y-134950000D01*
X165775000Y-134950000D01*
X165775000Y-132900000D01*
G37*
D11*
G36*
X210675000Y-122000000D02*
G01*
X204500000Y-122000000D01*
X204500000Y-119250000D01*
X206750000Y-119250000D01*
X206750000Y-116550000D01*
X208300000Y-116550000D01*
X210675000Y-116550000D01*
X210675000Y-122000000D01*
G37*
D12*
X102462500Y-74525000D02*
G75*
G03*
X102462500Y-74525000I-537500J0D01*
G01*
G36*
X139100000Y-132900000D02*
G01*
X144550000Y-132900000D01*
X144550000Y-134950000D01*
X139100000Y-134950000D01*
X139100000Y-132900000D01*
G37*
D10*
X214600000Y-78150000D02*
X216650000Y-78150000D01*
X216650000Y-85000000D01*
X214600000Y-85000000D01*
X214600000Y-78150000D01*
G36*
X214600000Y-78150000D02*
G01*
X216650000Y-78150000D01*
X216650000Y-85000000D01*
X214600000Y-85000000D01*
X214600000Y-78150000D01*
G37*
X87400000Y-134950000D02*
X89450000Y-134950000D01*
X89450000Y-143000000D01*
X87400000Y-143000000D01*
X87400000Y-134950000D01*
G36*
X87400000Y-134950000D02*
G01*
X89450000Y-134950000D01*
X89450000Y-143000000D01*
X87400000Y-143000000D01*
X87400000Y-134950000D01*
G37*
D12*
X94837500Y-74525000D02*
G75*
G03*
X94837500Y-74525000I-537500J0D01*
G01*
D10*
X214550000Y-90750000D02*
X216600000Y-90750000D01*
X216600000Y-97650000D01*
X214550000Y-97650000D01*
X214550000Y-90750000D01*
G36*
X214550000Y-90750000D02*
G01*
X216600000Y-90750000D01*
X216600000Y-97650000D01*
X214550000Y-97650000D01*
X214550000Y-90750000D01*
G37*
D11*
G36*
X213900000Y-115650000D02*
G01*
X215500000Y-115650000D01*
X215600000Y-115750000D01*
X215600000Y-121800000D01*
X215400000Y-122000000D01*
X210825000Y-122000000D01*
X210825000Y-116175000D01*
X208300000Y-116175000D01*
X208300000Y-112700000D01*
X213900000Y-112700000D01*
X213900000Y-115650000D01*
G37*
G36*
X216100000Y-151300000D02*
G01*
X215850000Y-151300000D01*
X215850000Y-151800000D01*
X216100000Y-151800000D01*
X216100000Y-151300000D01*
G37*
G36*
X212600000Y-155300000D02*
G01*
X212100000Y-155300000D01*
X212100000Y-155050000D01*
X212600000Y-155050000D01*
X212600000Y-155300000D01*
G37*
D13*
X212600000Y-154300000D02*
G75*
G03*
X215100000Y-151800000I-3J2500003D01*
G01*
D14*
X215650000Y-148050000D02*
G75*
G03*
X215650000Y-148050000I-300000J0D01*
G01*
D13*
X215100000Y-151300000D02*
G75*
G03*
X215100000Y-151300000I-3000000J0D01*
G01*
D15*
X212475000Y-146300000D02*
G75*
G03*
X212475000Y-146300000I-375000J0D01*
G01*
D14*
X209150000Y-154550000D02*
G75*
G03*
X209150000Y-154550000I-300000J0D01*
G01*
X209150000Y-148100000D02*
G75*
G03*
X209150000Y-148100000I-300000J0D01*
G01*
D15*
X207475000Y-151300000D02*
G75*
G03*
X207475000Y-151300000I-375000J0D01*
G01*
G36*
X215800000Y-148450000D02*
G01*
X215300000Y-148950000D01*
X214450000Y-148100000D01*
X214950000Y-147600000D01*
X215800000Y-148450000D01*
G37*
G36*
X212650000Y-147900000D02*
G01*
X211550000Y-147900000D01*
X211350000Y-146300000D01*
X212850000Y-146300000D01*
X212650000Y-147900000D01*
G37*
G36*
X209750000Y-148150000D02*
G01*
X208900000Y-149000000D01*
X208400000Y-148500000D01*
X209250000Y-147650000D01*
X209750000Y-148150000D01*
G37*
G36*
X209800000Y-154450000D02*
G01*
X209300000Y-154950000D01*
X208450000Y-154100000D01*
X208950000Y-153600000D01*
X209800000Y-154450000D01*
G37*
G36*
X208690000Y-150749924D02*
G01*
X208690000Y-151849924D01*
X207090000Y-152049924D01*
X207090000Y-150549924D01*
X208690000Y-150749924D01*
G37*
G36*
X212100000Y-32300000D02*
G01*
X212600000Y-32300000D01*
X212600000Y-32550000D01*
X212100000Y-32550000D01*
X212100000Y-32300000D01*
G37*
G36*
X216100000Y-35800000D02*
G01*
X215850000Y-35800000D01*
X215850000Y-36300000D01*
X216100000Y-36300000D01*
X216100000Y-35800000D01*
G37*
D13*
X215100000Y-35800000D02*
G75*
G03*
X212600000Y-33300000I-2500003J-3D01*
G01*
D14*
X209150000Y-33050000D02*
G75*
G03*
X209150000Y-33050000I-300000J0D01*
G01*
D13*
X215100000Y-36300000D02*
G75*
G03*
X215100000Y-36300000I-3000000J0D01*
G01*
D15*
X207475000Y-36300000D02*
G75*
G03*
X207475000Y-36300000I-375000J0D01*
G01*
D14*
X215650000Y-39550000D02*
G75*
G03*
X215650000Y-39550000I-300000J0D01*
G01*
X209200000Y-39550000D02*
G75*
G03*
X209200000Y-39550000I-300000J0D01*
G01*
D15*
X212475000Y-41300000D02*
G75*
G03*
X212475000Y-41300000I-375000J0D01*
G01*
G36*
X209750000Y-33100000D02*
G01*
X208900000Y-33950000D01*
X208400000Y-33450000D01*
X209250000Y-32600000D01*
X209750000Y-33100000D01*
G37*
G36*
X208700000Y-35750000D02*
G01*
X208700000Y-36850000D01*
X207100000Y-37050000D01*
X207100000Y-35550000D01*
X208700000Y-35750000D01*
G37*
G36*
X209800000Y-39500000D02*
G01*
X209300000Y-40000000D01*
X208450000Y-39150000D01*
X208950000Y-38650000D01*
X209800000Y-39500000D01*
G37*
G36*
X215750000Y-39100000D02*
G01*
X214900000Y-39950000D01*
X214400000Y-39450000D01*
X215250000Y-38600000D01*
X215750000Y-39100000D01*
G37*
G36*
X212849924Y-41310000D02*
G01*
X211349924Y-41310000D01*
X211549924Y-39710000D01*
X212649924Y-39710000D01*
X212849924Y-41310000D01*
G37*
G36*
X92100000Y-155300000D02*
G01*
X91600000Y-155300000D01*
X91600000Y-155050000D01*
X92100000Y-155050000D01*
X92100000Y-155300000D01*
G37*
G36*
X88100000Y-151800000D02*
G01*
X88350000Y-151800000D01*
X88350000Y-151300000D01*
X88100000Y-151300000D01*
X88100000Y-151800000D01*
G37*
D13*
X89100000Y-151800000D02*
G75*
G03*
X91600000Y-154300000I2500003J3D01*
G01*
D14*
X95650000Y-154550000D02*
G75*
G03*
X95650000Y-154550000I-300000J0D01*
G01*
D13*
X95100000Y-151300000D02*
G75*
G03*
X95100000Y-151300000I-3000000J0D01*
G01*
D15*
X97475000Y-151300000D02*
G75*
G03*
X97475000Y-151300000I-375000J0D01*
G01*
D14*
X89150000Y-148050000D02*
G75*
G03*
X89150000Y-148050000I-300000J0D01*
G01*
X95600000Y-148050000D02*
G75*
G03*
X95600000Y-148050000I-300000J0D01*
G01*
D15*
X92475000Y-146300000D02*
G75*
G03*
X92475000Y-146300000I-375000J0D01*
G01*
G36*
X95800000Y-154150000D02*
G01*
X94950000Y-155000000D01*
X94450000Y-154500000D01*
X95300000Y-153650000D01*
X95800000Y-154150000D01*
G37*
G36*
X97100000Y-152050000D02*
G01*
X95500000Y-151850000D01*
X95500000Y-150750000D01*
X97100000Y-150550000D01*
X97100000Y-152050000D01*
G37*
G36*
X95750000Y-148450000D02*
G01*
X95250000Y-148950000D01*
X94400000Y-148100000D01*
X94900000Y-147600000D01*
X95750000Y-148450000D01*
G37*
G36*
X89800000Y-148150000D02*
G01*
X88950000Y-149000000D01*
X88450000Y-148500000D01*
X89300000Y-147650000D01*
X89800000Y-148150000D01*
G37*
G36*
X92650076Y-147890000D02*
G01*
X91550076Y-147890000D01*
X91350076Y-146290000D01*
X92850076Y-146290000D01*
X92650076Y-147890000D01*
G37*
G36*
X88100000Y-36300000D02*
G01*
X88350000Y-36300000D01*
X88350000Y-35800000D01*
X88100000Y-35800000D01*
X88100000Y-36300000D01*
G37*
G36*
X91600000Y-32300000D02*
G01*
X92100000Y-32300000D01*
X92100000Y-32550000D01*
X91600000Y-32550000D01*
X91600000Y-32300000D01*
G37*
D13*
X91600000Y-33300000D02*
G75*
G03*
X89100000Y-35800000I3J-2500003D01*
G01*
D14*
X89150000Y-39550000D02*
G75*
G03*
X89150000Y-39550000I-300000J0D01*
G01*
D13*
X95100000Y-36300000D02*
G75*
G03*
X95100000Y-36300000I-3000000J0D01*
G01*
D15*
X92475000Y-41300000D02*
G75*
G03*
X92475000Y-41300000I-375000J0D01*
G01*
D14*
X95650000Y-33050000D02*
G75*
G03*
X95650000Y-33050000I-300000J0D01*
G01*
X95650000Y-39500000D02*
G75*
G03*
X95650000Y-39500000I-300000J0D01*
G01*
D15*
X97475000Y-36300000D02*
G75*
G03*
X97475000Y-36300000I-375000J0D01*
G01*
G36*
X89750000Y-39500000D02*
G01*
X89250000Y-40000000D01*
X88400000Y-39150000D01*
X88900000Y-38650000D01*
X89750000Y-39500000D01*
G37*
G36*
X92850000Y-41300000D02*
G01*
X91350000Y-41300000D01*
X91550000Y-39700000D01*
X92650000Y-39700000D01*
X92850000Y-41300000D01*
G37*
G36*
X95800000Y-39100000D02*
G01*
X94950000Y-39950000D01*
X94450000Y-39450000D01*
X95300000Y-38600000D01*
X95800000Y-39100000D01*
G37*
G36*
X95750000Y-33500000D02*
G01*
X95250000Y-34000000D01*
X94400000Y-33150000D01*
X94900000Y-32650000D01*
X95750000Y-33500000D01*
G37*
G36*
X97110000Y-37050076D02*
G01*
X95510000Y-36850076D01*
X95510000Y-35750076D01*
X97110000Y-35550076D01*
X97110000Y-37050076D01*
G37*
D16*
X197027800Y-94681400D03*
X197027800Y-99761400D03*
X100962400Y-45960800D03*
X100962400Y-48500800D03*
X100962400Y-51040800D03*
X191465200Y-102225200D03*
X191465200Y-107305200D03*
X108988800Y-45960800D03*
X108988800Y-48500800D03*
X108988800Y-51040800D03*
X211658200Y-100261400D03*
X211658200Y-110261400D03*
X204258200Y-100261400D03*
X204258200Y-110261400D03*
D17*
X181120000Y-43485000D03*
D18*
X181120000Y-51955000D03*
X213140000Y-43355000D03*
D17*
X213260000Y-51955000D03*
D18*
X189040000Y-45665000D03*
X189040000Y-49665000D03*
X197090000Y-45665000D03*
X197090000Y-49665000D03*
X201090000Y-45665000D03*
X201090000Y-49665000D03*
X205090000Y-45665000D03*
X205090000Y-49665000D03*
X210515200Y-73576800D03*
X210515200Y-88576800D03*
D19*
X182628600Y-120167400D03*
X180128600Y-120167400D03*
X177628600Y-120167400D03*
X175128600Y-120167400D03*
X172628600Y-120167400D03*
X170128600Y-120167400D03*
X167628600Y-120167400D03*
X165128600Y-120167400D03*
X162628600Y-120167400D03*
X160128600Y-120167400D03*
X157628600Y-120167400D03*
X155128600Y-120167400D03*
X152628600Y-120167400D03*
X150128600Y-120167400D03*
X147628600Y-120167400D03*
X145128600Y-120167400D03*
X142628600Y-120167400D03*
X140128600Y-120167400D03*
X137628600Y-120167400D03*
X135128600Y-120167400D03*
X132628600Y-120167400D03*
D16*
X117015200Y-45960800D03*
X117015200Y-48500800D03*
X117015200Y-51040800D03*
X194421000Y-59095000D03*
X194421000Y-61635000D03*
D20*
X212471000Y-61595000D03*
D16*
X194421000Y-64175000D03*
D21*
X94466400Y-60553600D03*
X99466400Y-60553600D03*
D16*
X126963482Y-118897400D03*
X126963482Y-123977400D03*
X196977000Y-104765200D03*
X196977000Y-109845200D03*
D19*
X181398600Y-123926600D03*
X178898600Y-123926600D03*
X176398600Y-123926600D03*
X173898600Y-123926600D03*
X171398600Y-123926600D03*
X168898600Y-123926600D03*
X166398600Y-123926600D03*
X163898600Y-123926600D03*
X161398600Y-123926600D03*
X158898600Y-123926600D03*
X156398600Y-123926600D03*
X153898600Y-123926600D03*
X151398600Y-123926600D03*
X148898600Y-123926600D03*
X146398600Y-123926600D03*
X143898600Y-123926600D03*
X141398600Y-123926600D03*
X138898600Y-123926600D03*
X136398600Y-123926600D03*
X133898600Y-123926600D03*
X131398600Y-123926600D03*
D16*
X125552200Y-105791000D03*
X125552200Y-108331000D03*
X125552200Y-110871000D03*
D17*
X89852200Y-114031000D03*
X110992200Y-95521000D03*
X110992200Y-126231000D03*
D16*
X114438118Y-129006600D03*
X114438118Y-134086600D03*
X130886200Y-111302800D03*
X130886200Y-106222800D03*
X197016682Y-84683600D03*
X197016682Y-89763600D03*
D22*
X204495400Y-93699000D03*
X204495400Y-73499000D03*
D23*
X101950000Y-82240000D03*
X101950000Y-67000000D03*
X94330000Y-67000000D03*
X94330000Y-82240000D03*
D16*
X209499200Y-126456800D03*
X209499200Y-131536800D03*
D24*
X105638600Y-37479600D03*
X108288600Y-37479600D03*
X103538600Y-37479600D03*
X105638600Y-39979600D03*
X110338600Y-37479600D03*
X103538600Y-39979600D03*
X107838600Y-39979600D03*
X110338600Y-39979600D03*
D16*
X104975600Y-45960800D03*
X104975600Y-48500800D03*
X104975600Y-51040800D03*
X202031600Y-114874400D03*
X202031600Y-119954400D03*
X197027800Y-74615400D03*
X197027800Y-79695400D03*
X113002000Y-45960800D03*
X113002000Y-48500800D03*
X113002000Y-51040800D03*
X101244400Y-87071200D03*
X96164400Y-87071200D03*
X92936000Y-45960800D03*
X92936000Y-48500800D03*
X92936000Y-51040800D03*
X205511400Y-120707800D03*
X205511400Y-113207800D03*
X185420000Y-102199800D03*
X185420000Y-107279800D03*
X186983682Y-58623200D03*
X186983682Y-63703200D03*
X185420000Y-92141400D03*
X185420000Y-97221400D03*
D25*
X119150000Y-141132400D03*
X185110000Y-141132400D03*
D26*
X124160000Y-143722400D03*
X126700000Y-143722400D03*
X129240000Y-143722400D03*
X131780000Y-143722400D03*
X134320000Y-143722400D03*
X136860000Y-143722400D03*
X139400000Y-143722400D03*
X141940000Y-143722400D03*
X144480000Y-143722400D03*
X147020000Y-143722400D03*
X149560000Y-143722400D03*
X152100000Y-143722400D03*
X154640000Y-143722400D03*
X157180000Y-143722400D03*
X159720000Y-143722400D03*
X162260000Y-143722400D03*
X164800000Y-143722400D03*
X167340000Y-143722400D03*
X169880000Y-143722400D03*
X172420000Y-143722400D03*
X174960000Y-143722400D03*
X177500000Y-143722400D03*
X180040000Y-143722400D03*
X124160000Y-141112400D03*
X126700000Y-141112400D03*
X129240000Y-141112400D03*
X131780000Y-141112400D03*
X134320000Y-141112400D03*
X136860000Y-141112400D03*
X139400000Y-141112400D03*
X141940000Y-141112400D03*
X144480000Y-141112400D03*
X147020000Y-141112400D03*
X149560000Y-141112400D03*
X152100000Y-141112400D03*
X154640000Y-141112400D03*
X157180000Y-141112400D03*
X159720000Y-141112400D03*
X162260000Y-141112400D03*
X164800000Y-141112400D03*
X167340000Y-141112400D03*
X169880000Y-141112400D03*
X172420000Y-141112400D03*
X174960000Y-141112400D03*
X177500000Y-141112400D03*
X180040000Y-141112400D03*
X124160000Y-138532400D03*
X126700000Y-138532400D03*
X129240000Y-138532400D03*
X131780000Y-138532400D03*
X134320000Y-138532400D03*
X136860000Y-138532400D03*
X139400000Y-138532400D03*
X141940000Y-138532400D03*
X144480000Y-138532400D03*
X147020000Y-138532400D03*
X149560000Y-138532400D03*
X152100000Y-138532400D03*
X154640000Y-138532400D03*
X157180000Y-138532400D03*
X159720000Y-138532400D03*
X162260000Y-138532400D03*
X164800000Y-138532400D03*
X167340000Y-138532400D03*
X169880000Y-138532400D03*
X172420000Y-138532400D03*
X174960000Y-138532400D03*
X177500000Y-138532400D03*
X180040000Y-138532400D03*
D16*
X94386400Y-55549800D03*
X99466400Y-55549800D03*
X180989282Y-56083200D03*
X180989282Y-61163200D03*
X121945000Y-131500000D03*
X124485000Y-131500000D03*
X127025000Y-131500000D03*
X195949882Y-114858800D03*
X195949882Y-119938800D03*
X96949200Y-45960800D03*
X96949200Y-48500800D03*
X96949200Y-51040800D03*
D27*
X207987200Y-119050600D03*
D28*
X210987200Y-114200600D03*
D29*
X213987200Y-119100600D03*
D30*
X193522600Y-144043400D03*
X196062600Y-144043400D03*
X198602600Y-144043400D03*
X201142600Y-144043400D03*
X201142600Y-136423400D03*
X198602600Y-136423400D03*
X196062600Y-136423400D03*
X193522600Y-136423400D03*
D16*
X191490600Y-92192200D03*
X191490600Y-97272200D03*
D23*
X141503400Y-79321600D03*
D31*
X141503400Y-79046600D03*
X141503400Y-76096600D03*
D23*
X141503400Y-75821600D03*
X118465600Y-131620200D03*
D31*
X118465600Y-131345200D03*
X118465600Y-128395200D03*
D23*
X118465600Y-128120200D03*
X158546800Y-66291400D03*
D32*
X158546800Y-65841400D03*
X158546800Y-63241400D03*
D23*
X158546800Y-62791400D03*
X186475000Y-74750000D03*
D31*
X186475000Y-74475000D03*
X186475000Y-71525000D03*
D23*
X186475000Y-71250000D03*
X198960000Y-151130000D03*
D32*
X198960000Y-150680000D03*
X198960000Y-148080000D03*
D23*
X198960000Y-147630000D03*
X163525200Y-74300200D03*
D33*
X163525200Y-74750200D03*
X163525200Y-77350200D03*
D23*
X163525200Y-77800200D03*
X191525000Y-74750000D03*
D31*
X191525000Y-74475000D03*
X191525000Y-71525000D03*
D23*
X191525000Y-71250000D03*
X201470000Y-151130000D03*
D31*
X201470000Y-150855000D03*
X201470000Y-147905000D03*
D23*
X201470000Y-147630000D03*
X99390200Y-68785800D03*
D33*
X99390200Y-69235800D03*
X99390200Y-71835800D03*
D23*
X99390200Y-72285800D03*
X99390200Y-79321600D03*
D32*
X99390200Y-78871600D03*
X99390200Y-76271600D03*
D23*
X99390200Y-75821600D03*
X127759400Y-79070200D03*
D34*
X127309400Y-79070200D03*
X124709400Y-79070200D03*
D23*
X124259400Y-79070200D03*
X196443600Y-151127400D03*
D31*
X196443600Y-150852400D03*
X196443600Y-147902400D03*
D23*
X196443600Y-147627400D03*
X148945600Y-79321600D03*
D31*
X148945600Y-79046600D03*
X148945600Y-76096600D03*
D23*
X148945600Y-75821600D03*
X169062400Y-66291400D03*
D32*
X169062400Y-65841400D03*
X169062400Y-63241400D03*
D23*
X169062400Y-62791400D03*
X183896000Y-147630000D03*
D35*
X183896000Y-147905000D03*
X183896000Y-150855000D03*
D23*
X183896000Y-151130000D03*
X194411600Y-129085400D03*
D35*
X194411600Y-129360400D03*
X194411600Y-132310400D03*
D23*
X194411600Y-132585400D03*
X166979600Y-89814400D03*
D35*
X166979600Y-90089400D03*
X166979600Y-93039400D03*
D23*
X166979600Y-93314400D03*
X120015000Y-71981000D03*
D32*
X120015000Y-71531000D03*
X120015000Y-68931000D03*
D23*
X120015000Y-68481000D03*
X191525000Y-80775000D03*
D31*
X191525000Y-80500000D03*
X191525000Y-77550000D03*
D23*
X191525000Y-77275000D03*
X186475000Y-80775000D03*
D31*
X186475000Y-80500000D03*
X186475000Y-77550000D03*
D23*
X186475000Y-77275000D03*
X199466200Y-129085400D03*
D35*
X199466200Y-129360400D03*
X199466200Y-132310400D03*
D23*
X199466200Y-132585400D03*
X183950000Y-71250000D03*
D35*
X183950000Y-71525000D03*
X183950000Y-74475000D03*
D23*
X183950000Y-74750000D03*
X203980000Y-147630000D03*
D35*
X203980000Y-147905000D03*
X203980000Y-150855000D03*
D23*
X203980000Y-151130000D03*
X186385200Y-147627400D03*
D35*
X186385200Y-147902400D03*
X186385200Y-150852400D03*
D23*
X186385200Y-151127400D03*
D36*
X186475000Y-84675000D03*
D37*
X187525000Y-87475000D03*
X185425000Y-87475000D03*
D23*
X126542800Y-36858000D03*
D33*
X126542800Y-37308000D03*
X126542800Y-39908000D03*
D23*
X126542800Y-40358000D03*
X166779000Y-60045600D03*
D38*
X167229000Y-60045600D03*
X169829000Y-60045600D03*
D23*
X170279000Y-60045600D03*
X189000000Y-74750000D03*
D31*
X189000000Y-74475000D03*
X189000000Y-71525000D03*
D23*
X189000000Y-71250000D03*
X157450000Y-110525000D03*
D33*
X157450000Y-110975000D03*
X157450000Y-113575000D03*
D23*
X157450000Y-114025000D03*
X210175000Y-106175000D03*
D34*
X209725000Y-106175000D03*
X207125000Y-106175000D03*
D23*
X206675000Y-106175000D03*
X127708600Y-101142800D03*
D39*
X127433600Y-101142800D03*
X124483600Y-101142800D03*
D23*
X124208600Y-101142800D03*
X178460400Y-106471600D03*
D31*
X178460400Y-106196600D03*
X178460400Y-103246600D03*
D23*
X178460400Y-102971600D03*
X140843000Y-94025600D03*
D31*
X140843000Y-93750600D03*
X140843000Y-90800600D03*
D23*
X140843000Y-90525600D03*
X96901000Y-75826200D03*
D35*
X96901000Y-76101200D03*
X96901000Y-79051200D03*
D23*
X96901000Y-79326200D03*
X124183200Y-114757200D03*
D38*
X124633200Y-114757200D03*
X127233200Y-114757200D03*
D23*
X127683200Y-114757200D03*
X167513000Y-81384200D03*
D33*
X167513000Y-81834200D03*
X167513000Y-84434200D03*
D23*
X167513000Y-84884200D03*
X181425000Y-74750000D03*
D31*
X181425000Y-74475000D03*
X181425000Y-71525000D03*
D23*
X181425000Y-71250000D03*
X188899800Y-151127400D03*
D31*
X188899800Y-150852400D03*
X188899800Y-147902400D03*
D23*
X188899800Y-147627400D03*
X183950000Y-77275000D03*
D35*
X183950000Y-77550000D03*
X183950000Y-80500000D03*
D23*
X183950000Y-80775000D03*
X138379200Y-94033700D03*
D31*
X138379200Y-93758700D03*
X138379200Y-90808700D03*
D23*
X138379200Y-90533700D03*
X189000000Y-77275000D03*
D35*
X189000000Y-77550000D03*
X189000000Y-80500000D03*
D23*
X189000000Y-80775000D03*
X171500800Y-100860800D03*
D31*
X171500800Y-100585800D03*
X171500800Y-97635800D03*
D23*
X171500800Y-97360800D03*
X184782400Y-66167000D03*
D34*
X184332400Y-66167000D03*
X181732400Y-66167000D03*
D23*
X181282400Y-66167000D03*
X188750000Y-54584600D03*
D38*
X189200000Y-54584600D03*
X191800000Y-54584600D03*
D23*
X192250000Y-54584600D03*
X130962400Y-94036300D03*
D31*
X130962400Y-93761300D03*
X130962400Y-90811300D03*
D23*
X130962400Y-90536300D03*
X204978000Y-136603800D03*
D35*
X204978000Y-136878800D03*
X204978000Y-139828800D03*
D23*
X204978000Y-140103800D03*
X135915400Y-94036300D03*
D31*
X135915400Y-93761300D03*
X135915400Y-90811300D03*
D23*
X135915400Y-90536300D03*
X139796400Y-71069200D03*
D34*
X139346400Y-71069200D03*
X136746400Y-71069200D03*
D23*
X136296400Y-71069200D03*
X128473200Y-94036300D03*
D31*
X128473200Y-93761300D03*
X128473200Y-90811300D03*
D23*
X128473200Y-90536300D03*
X140425000Y-102400000D03*
D32*
X140425000Y-101950000D03*
X140425000Y-99350000D03*
D23*
X140425000Y-98900000D03*
X123494800Y-94036300D03*
D31*
X123494800Y-93761300D03*
X123494800Y-90811300D03*
D23*
X123494800Y-90536300D03*
D40*
X204541400Y-129367000D03*
X202441400Y-129367000D03*
D41*
X203491400Y-132167000D03*
D36*
X181925000Y-84725000D03*
D37*
X182975000Y-87525000D03*
X180875000Y-87525000D03*
D23*
X111963200Y-68303200D03*
D35*
X111963200Y-68578200D03*
X111963200Y-71528200D03*
D23*
X111963200Y-71803200D03*
X114503200Y-71803200D03*
D31*
X114503200Y-71528200D03*
X114503200Y-68578200D03*
D23*
X114503200Y-68303200D03*
X173990000Y-100860800D03*
D31*
X173990000Y-100585800D03*
X173990000Y-97635800D03*
D23*
X173990000Y-97360800D03*
X133451600Y-94036300D03*
D31*
X133451600Y-93761300D03*
X133451600Y-90811300D03*
D23*
X133451600Y-90536300D03*
X162001200Y-93317000D03*
D31*
X162001200Y-93042000D03*
X162001200Y-90092000D03*
D23*
X162001200Y-89817000D03*
X155016200Y-72819200D03*
D32*
X155016200Y-72369200D03*
X155016200Y-69769200D03*
D23*
X155016200Y-69319200D03*
X164490400Y-93317000D03*
D31*
X164490400Y-93042000D03*
X164490400Y-90092000D03*
D23*
X164490400Y-89817000D03*
D36*
X190975000Y-84675000D03*
D37*
X192025000Y-87475000D03*
X189925000Y-87475000D03*
D23*
X127759400Y-68097400D03*
D34*
X127309400Y-68097400D03*
X124709400Y-68097400D03*
D23*
X124259400Y-68097400D03*
X169011600Y-100860800D03*
D32*
X169011600Y-100410800D03*
X169011600Y-97810800D03*
D23*
X169011600Y-97360800D03*
X96901000Y-72283200D03*
D31*
X96901000Y-72008200D03*
X96901000Y-69058200D03*
D23*
X96901000Y-68783200D03*
X193929000Y-147630000D03*
D35*
X193929000Y-147905000D03*
X193929000Y-150855000D03*
D23*
X193929000Y-151130000D03*
X154508200Y-34876800D03*
D33*
X154508200Y-35326800D03*
X154508200Y-37926800D03*
D23*
X154508200Y-38376800D03*
X164033200Y-99387600D03*
D31*
X164033200Y-99112600D03*
X164033200Y-96162600D03*
D23*
X164033200Y-95887600D03*
X169468800Y-89814400D03*
D35*
X169468800Y-90089400D03*
X169468800Y-93039400D03*
D23*
X169468800Y-93314400D03*
X191414400Y-151127400D03*
D31*
X191414400Y-150852400D03*
X191414400Y-147902400D03*
D23*
X191414400Y-147627400D03*
X196926200Y-132585400D03*
D31*
X196926200Y-132310400D03*
X196926200Y-129360400D03*
D23*
X196926200Y-129085400D03*
X143992600Y-79321600D03*
D31*
X143992600Y-79046600D03*
X143992600Y-76096600D03*
D23*
X143992600Y-75821600D03*
D16*
X118450000Y-39980000D03*
X123530000Y-39980000D03*
D23*
X146456400Y-75821600D03*
D35*
X146456400Y-76096600D03*
X146456400Y-79046600D03*
D23*
X146456400Y-79321600D03*
X181425000Y-80775000D03*
D31*
X181425000Y-80500000D03*
X181425000Y-77550000D03*
D23*
X181425000Y-77275000D03*
X166547800Y-62791400D03*
D33*
X166547800Y-63241400D03*
X166547800Y-65841400D03*
D23*
X166547800Y-66291400D03*
X125984000Y-94036300D03*
D31*
X125984000Y-93761300D03*
X125984000Y-90811300D03*
D23*
X125984000Y-90536300D03*
X152958800Y-85880000D03*
D33*
X152958800Y-86330000D03*
X152958800Y-88930000D03*
D23*
X152958800Y-89380000D03*
M02*
