G04 #@! TF.GenerationSoftware,KiCad,Pcbnew,7.0.2-0*
G04 #@! TF.CreationDate,2023-08-25T16:22:02+02:00*
G04 #@! TF.ProjectId,PCE,5043452e-6b69-4636-9164-5f7063625858,rev?*
G04 #@! TF.SameCoordinates,Original*
G04 #@! TF.FileFunction,Paste,Bot*
G04 #@! TF.FilePolarity,Positive*
%FSLAX46Y46*%
G04 Gerber Fmt 4.6, Leading zero omitted, Abs format (unit mm)*
G04 Created by KiCad (PCBNEW 7.0.2-0) date 2023-08-25 16:22:02*
%MOMM*%
%LPD*%
G01*
G04 APERTURE LIST*
G04 Aperture macros list*
%AMRoundRect*
0 Rectangle with rounded corners*
0 $1 Rounding radius*
0 $2 $3 $4 $5 $6 $7 $8 $9 X,Y pos of 4 corners*
0 Add a 4 corners polygon primitive as box body*
4,1,4,$2,$3,$4,$5,$6,$7,$8,$9,$2,$3,0*
0 Add four circle primitives for the rounded corners*
1,1,$1+$1,$2,$3*
1,1,$1+$1,$4,$5*
1,1,$1+$1,$6,$7*
1,1,$1+$1,$8,$9*
0 Add four rect primitives between the rounded corners*
20,1,$1+$1,$2,$3,$4,$5,0*
20,1,$1+$1,$4,$5,$6,$7,0*
20,1,$1+$1,$6,$7,$8,$9,0*
20,1,$1+$1,$8,$9,$2,$3,0*%
G04 Aperture macros list end*
%ADD10C,1.600000*%
%ADD11RoundRect,0.250000X0.550000X-0.325000X0.550000X0.325000X-0.550000X0.325000X-0.550000X-0.325000X0*%
%ADD12RoundRect,0.326087X0.473913X-0.423913X0.473913X0.423913X-0.473913X0.423913X-0.473913X-0.423913X0*%
%ADD13RoundRect,0.326087X-0.473913X0.423913X-0.473913X-0.423913X0.473913X-0.423913X0.473913X0.423913X0*%
%ADD14RoundRect,0.326087X0.423913X0.473913X-0.423913X0.473913X-0.423913X-0.473913X0.423913X-0.473913X0*%
%ADD15RoundRect,0.250000X-0.550000X0.325000X-0.550000X-0.325000X0.550000X-0.325000X0.550000X0.325000X0*%
%ADD16RoundRect,0.300000X0.300000X-0.500000X0.300000X0.500000X-0.300000X0.500000X-0.300000X-0.500000X0*%
%ADD17RoundRect,0.300000X0.300000X-0.700000X0.300000X0.700000X-0.300000X0.700000X-0.300000X-0.700000X0*%
%ADD18RoundRect,0.326087X-0.423913X-0.473913X0.423913X-0.473913X0.423913X0.473913X-0.423913X0.473913X0*%
%ADD19RoundRect,0.250000X0.325000X0.550000X-0.325000X0.550000X-0.325000X-0.550000X0.325000X-0.550000X0*%
%ADD20RoundRect,0.300000X-0.300000X0.700000X-0.300000X-0.700000X0.300000X-0.700000X0.300000X0.700000X0*%
%ADD21RoundRect,0.300000X-0.300000X0.500000X-0.300000X-0.500000X0.300000X-0.500000X0.300000X0.500000X0*%
G04 APERTURE END LIST*
D10*
X141503400Y-79321600D03*
D11*
X141503400Y-79046600D03*
X141503400Y-76096600D03*
D10*
X141503400Y-75821600D03*
X118465600Y-131620200D03*
D11*
X118465600Y-131345200D03*
X118465600Y-128395200D03*
D10*
X118465600Y-128120200D03*
X158546800Y-66291400D03*
D12*
X158546800Y-65841400D03*
X158546800Y-63241400D03*
D10*
X158546800Y-62791400D03*
X186475000Y-74750000D03*
D11*
X186475000Y-74475000D03*
X186475000Y-71525000D03*
D10*
X186475000Y-71250000D03*
X198960000Y-151130000D03*
D12*
X198960000Y-150680000D03*
X198960000Y-148080000D03*
D10*
X198960000Y-147630000D03*
X163525200Y-74300200D03*
D13*
X163525200Y-74750200D03*
X163525200Y-77350200D03*
D10*
X163525200Y-77800200D03*
X191525000Y-74750000D03*
D11*
X191525000Y-74475000D03*
X191525000Y-71525000D03*
D10*
X191525000Y-71250000D03*
X201470000Y-151130000D03*
D11*
X201470000Y-150855000D03*
X201470000Y-147905000D03*
D10*
X201470000Y-147630000D03*
X99390200Y-68785800D03*
D13*
X99390200Y-69235800D03*
X99390200Y-71835800D03*
D10*
X99390200Y-72285800D03*
X99390200Y-79321600D03*
D12*
X99390200Y-78871600D03*
X99390200Y-76271600D03*
D10*
X99390200Y-75821600D03*
X127759400Y-79070200D03*
D14*
X127309400Y-79070200D03*
X124709400Y-79070200D03*
D10*
X124259400Y-79070200D03*
X196443600Y-151127400D03*
D11*
X196443600Y-150852400D03*
X196443600Y-147902400D03*
D10*
X196443600Y-147627400D03*
X148945600Y-79321600D03*
D11*
X148945600Y-79046600D03*
X148945600Y-76096600D03*
D10*
X148945600Y-75821600D03*
X169062400Y-66291400D03*
D12*
X169062400Y-65841400D03*
X169062400Y-63241400D03*
D10*
X169062400Y-62791400D03*
X183896000Y-147630000D03*
D15*
X183896000Y-147905000D03*
X183896000Y-150855000D03*
D10*
X183896000Y-151130000D03*
X194411600Y-129085400D03*
D15*
X194411600Y-129360400D03*
X194411600Y-132310400D03*
D10*
X194411600Y-132585400D03*
X166979600Y-89814400D03*
D15*
X166979600Y-90089400D03*
X166979600Y-93039400D03*
D10*
X166979600Y-93314400D03*
X120015000Y-71981000D03*
D12*
X120015000Y-71531000D03*
X120015000Y-68931000D03*
D10*
X120015000Y-68481000D03*
X191525000Y-80775000D03*
D11*
X191525000Y-80500000D03*
X191525000Y-77550000D03*
D10*
X191525000Y-77275000D03*
X186475000Y-80775000D03*
D11*
X186475000Y-80500000D03*
X186475000Y-77550000D03*
D10*
X186475000Y-77275000D03*
X199466200Y-129085400D03*
D15*
X199466200Y-129360400D03*
X199466200Y-132310400D03*
D10*
X199466200Y-132585400D03*
X183950000Y-71250000D03*
D15*
X183950000Y-71525000D03*
X183950000Y-74475000D03*
D10*
X183950000Y-74750000D03*
X203980000Y-147630000D03*
D15*
X203980000Y-147905000D03*
X203980000Y-150855000D03*
D10*
X203980000Y-151130000D03*
X186385200Y-147627400D03*
D15*
X186385200Y-147902400D03*
X186385200Y-150852400D03*
D10*
X186385200Y-151127400D03*
D16*
X186475000Y-84675000D03*
D17*
X187525000Y-87475000D03*
X185425000Y-87475000D03*
D10*
X126542800Y-36858000D03*
D13*
X126542800Y-37308000D03*
X126542800Y-39908000D03*
D10*
X126542800Y-40358000D03*
X166779000Y-60045600D03*
D18*
X167229000Y-60045600D03*
X169829000Y-60045600D03*
D10*
X170279000Y-60045600D03*
X189000000Y-74750000D03*
D11*
X189000000Y-74475000D03*
X189000000Y-71525000D03*
D10*
X189000000Y-71250000D03*
X157450000Y-110525000D03*
D13*
X157450000Y-110975000D03*
X157450000Y-113575000D03*
D10*
X157450000Y-114025000D03*
X210175000Y-106175000D03*
D14*
X209725000Y-106175000D03*
X207125000Y-106175000D03*
D10*
X206675000Y-106175000D03*
X127708600Y-101142800D03*
D19*
X127433600Y-101142800D03*
X124483600Y-101142800D03*
D10*
X124208600Y-101142800D03*
X178460400Y-106471600D03*
D11*
X178460400Y-106196600D03*
X178460400Y-103246600D03*
D10*
X178460400Y-102971600D03*
X140843000Y-94025600D03*
D11*
X140843000Y-93750600D03*
X140843000Y-90800600D03*
D10*
X140843000Y-90525600D03*
X96901000Y-75826200D03*
D15*
X96901000Y-76101200D03*
X96901000Y-79051200D03*
D10*
X96901000Y-79326200D03*
X124183200Y-114757200D03*
D18*
X124633200Y-114757200D03*
X127233200Y-114757200D03*
D10*
X127683200Y-114757200D03*
X167513000Y-81384200D03*
D13*
X167513000Y-81834200D03*
X167513000Y-84434200D03*
D10*
X167513000Y-84884200D03*
X181425000Y-74750000D03*
D11*
X181425000Y-74475000D03*
X181425000Y-71525000D03*
D10*
X181425000Y-71250000D03*
X188899800Y-151127400D03*
D11*
X188899800Y-150852400D03*
X188899800Y-147902400D03*
D10*
X188899800Y-147627400D03*
X183950000Y-77275000D03*
D15*
X183950000Y-77550000D03*
X183950000Y-80500000D03*
D10*
X183950000Y-80775000D03*
X138379200Y-94033700D03*
D11*
X138379200Y-93758700D03*
X138379200Y-90808700D03*
D10*
X138379200Y-90533700D03*
X189000000Y-77275000D03*
D15*
X189000000Y-77550000D03*
X189000000Y-80500000D03*
D10*
X189000000Y-80775000D03*
X171500800Y-100860800D03*
D11*
X171500800Y-100585800D03*
X171500800Y-97635800D03*
D10*
X171500800Y-97360800D03*
X184782400Y-66167000D03*
D14*
X184332400Y-66167000D03*
X181732400Y-66167000D03*
D10*
X181282400Y-66167000D03*
X188750000Y-54584600D03*
D18*
X189200000Y-54584600D03*
X191800000Y-54584600D03*
D10*
X192250000Y-54584600D03*
X130962400Y-94036300D03*
D11*
X130962400Y-93761300D03*
X130962400Y-90811300D03*
D10*
X130962400Y-90536300D03*
X204978000Y-136603800D03*
D15*
X204978000Y-136878800D03*
X204978000Y-139828800D03*
D10*
X204978000Y-140103800D03*
X135915400Y-94036300D03*
D11*
X135915400Y-93761300D03*
X135915400Y-90811300D03*
D10*
X135915400Y-90536300D03*
X139796400Y-71069200D03*
D14*
X139346400Y-71069200D03*
X136746400Y-71069200D03*
D10*
X136296400Y-71069200D03*
X128473200Y-94036300D03*
D11*
X128473200Y-93761300D03*
X128473200Y-90811300D03*
D10*
X128473200Y-90536300D03*
X140425000Y-102400000D03*
D12*
X140425000Y-101950000D03*
X140425000Y-99350000D03*
D10*
X140425000Y-98900000D03*
X123494800Y-94036300D03*
D11*
X123494800Y-93761300D03*
X123494800Y-90811300D03*
D10*
X123494800Y-90536300D03*
D20*
X204541400Y-129367000D03*
X202441400Y-129367000D03*
D21*
X203491400Y-132167000D03*
D16*
X181925000Y-84725000D03*
D17*
X182975000Y-87525000D03*
X180875000Y-87525000D03*
D10*
X111963200Y-68303200D03*
D15*
X111963200Y-68578200D03*
X111963200Y-71528200D03*
D10*
X111963200Y-71803200D03*
X114503200Y-71803200D03*
D11*
X114503200Y-71528200D03*
X114503200Y-68578200D03*
D10*
X114503200Y-68303200D03*
X173990000Y-100860800D03*
D11*
X173990000Y-100585800D03*
X173990000Y-97635800D03*
D10*
X173990000Y-97360800D03*
X133451600Y-94036300D03*
D11*
X133451600Y-93761300D03*
X133451600Y-90811300D03*
D10*
X133451600Y-90536300D03*
X162001200Y-93317000D03*
D11*
X162001200Y-93042000D03*
X162001200Y-90092000D03*
D10*
X162001200Y-89817000D03*
X155016200Y-72819200D03*
D12*
X155016200Y-72369200D03*
X155016200Y-69769200D03*
D10*
X155016200Y-69319200D03*
X164490400Y-93317000D03*
D11*
X164490400Y-93042000D03*
X164490400Y-90092000D03*
D10*
X164490400Y-89817000D03*
D16*
X190975000Y-84675000D03*
D17*
X192025000Y-87475000D03*
X189925000Y-87475000D03*
D10*
X127759400Y-68097400D03*
D14*
X127309400Y-68097400D03*
X124709400Y-68097400D03*
D10*
X124259400Y-68097400D03*
X169011600Y-100860800D03*
D12*
X169011600Y-100410800D03*
X169011600Y-97810800D03*
D10*
X169011600Y-97360800D03*
X96901000Y-72283200D03*
D11*
X96901000Y-72008200D03*
X96901000Y-69058200D03*
D10*
X96901000Y-68783200D03*
X193929000Y-147630000D03*
D15*
X193929000Y-147905000D03*
X193929000Y-150855000D03*
D10*
X193929000Y-151130000D03*
X154508200Y-34876800D03*
D13*
X154508200Y-35326800D03*
X154508200Y-37926800D03*
D10*
X154508200Y-38376800D03*
X164033200Y-99387600D03*
D11*
X164033200Y-99112600D03*
X164033200Y-96162600D03*
D10*
X164033200Y-95887600D03*
X169468800Y-89814400D03*
D15*
X169468800Y-90089400D03*
X169468800Y-93039400D03*
D10*
X169468800Y-93314400D03*
X191414400Y-151127400D03*
D11*
X191414400Y-150852400D03*
X191414400Y-147902400D03*
D10*
X191414400Y-147627400D03*
X196926200Y-132585400D03*
D11*
X196926200Y-132310400D03*
X196926200Y-129360400D03*
D10*
X196926200Y-129085400D03*
X143992600Y-79321600D03*
D11*
X143992600Y-79046600D03*
X143992600Y-76096600D03*
D10*
X143992600Y-75821600D03*
X146456400Y-75821600D03*
D15*
X146456400Y-76096600D03*
X146456400Y-79046600D03*
D10*
X146456400Y-79321600D03*
X181425000Y-80775000D03*
D11*
X181425000Y-80500000D03*
X181425000Y-77550000D03*
D10*
X181425000Y-77275000D03*
X166547800Y-62791400D03*
D13*
X166547800Y-63241400D03*
X166547800Y-65841400D03*
D10*
X166547800Y-66291400D03*
X125984000Y-94036300D03*
D11*
X125984000Y-93761300D03*
X125984000Y-90811300D03*
D10*
X125984000Y-90536300D03*
X152958800Y-85880000D03*
D13*
X152958800Y-86330000D03*
X152958800Y-88930000D03*
D10*
X152958800Y-89380000D03*
M02*
