%TF.GenerationSoftware,KiCad,Pcbnew,7.0.7*%
%TF.CreationDate,2023-09-20T17:37:38+02:00*%
%TF.ProjectId,PCE,5043452e-6b69-4636-9164-5f7063625858,rev?*%
%TF.SameCoordinates,Original*%
%TF.FileFunction,Drillmap*%
%TF.FilePolarity,Positive*%
%FSLAX45Y45*%
G04 Gerber Fmt 4.5, Leading zero omitted, Abs format (unit mm)*
G04 Created by KiCad (PCBNEW 7.0.7) date 2023-09-20 17:37:38*
%MOMM*%
%LPD*%
G01*
G04 APERTURE LIST*
%ADD10C,0.100000*%
%ADD11C,0.200000*%
G04 APERTURE END LIST*
D10*
X21342500Y-3129024D02*
X9077835Y-3128689D01*
X11317000Y-3339000D02*
X11433000Y-3339000D01*
X11433000Y-3575000D01*
X11317000Y-3575000D01*
X11317000Y-3339000D01*
X10538000Y-5550000D02*
X10843000Y-5550000D01*
X10843000Y-5662000D01*
X10538000Y-5662000D01*
X10538000Y-5550000D01*
X10568000Y-3322000D02*
X10831000Y-3322000D01*
X10831000Y-3431000D01*
X10568000Y-3431000D01*
X10568000Y-3322000D01*
X21336000Y-7771000D02*
X21456240Y-7771000D01*
X21456240Y-8414000D01*
X21336000Y-8414000D01*
X21336000Y-7771000D01*
X9077835Y-3128690D02*
G75*
G03*
X8710335Y-3496189I-12835J-354665D01*
G01*
X21710000Y-15260854D02*
X21710000Y-3496524D01*
X21709996Y-3496524D02*
G75*
G03*
X21342500Y-3129024I-354666J12834D01*
G01*
X21342500Y-15628360D02*
G75*
G03*
X21710000Y-15260854I12830J354670D01*
G01*
X8710335Y-3496189D02*
X8710670Y-15260854D01*
X8710665Y-15260854D02*
G75*
G03*
X9078170Y-15628354I354665J-12836D01*
G01*
X16689820Y-13426440D02*
X17005820Y-13426440D01*
X17005820Y-13553440D01*
X16689820Y-13553440D01*
X16689820Y-13426440D01*
X9078170Y-15628354D02*
X21342500Y-15628354D01*
X14022300Y-13434060D02*
X14338300Y-13434060D01*
X14338300Y-13556060D01*
X14022300Y-13556060D01*
X14022300Y-13434060D01*
X9962000Y-3339000D02*
X10078000Y-3339000D01*
X10078000Y-3575000D01*
X9962000Y-3575000D01*
X9962000Y-3339000D01*
X21343000Y-9192000D02*
X21455000Y-9192000D01*
X21455000Y-9621000D01*
X21343000Y-9621000D01*
X21343000Y-9192000D01*
X8948000Y-13586000D02*
X9053000Y-13586000D01*
X9053000Y-14229000D01*
X8948000Y-14229000D01*
X8948000Y-13586000D01*
D11*
X8965880Y-15945076D02*
X8965880Y-15745076D01*
X8965880Y-15745076D02*
X9013499Y-15745076D01*
X9013499Y-15745076D02*
X9042070Y-15754600D01*
X9042070Y-15754600D02*
X9061118Y-15773647D01*
X9061118Y-15773647D02*
X9070641Y-15792695D01*
X9070641Y-15792695D02*
X9080165Y-15830790D01*
X9080165Y-15830790D02*
X9080165Y-15859362D01*
X9080165Y-15859362D02*
X9070641Y-15897457D01*
X9070641Y-15897457D02*
X9061118Y-15916504D01*
X9061118Y-15916504D02*
X9042070Y-15935552D01*
X9042070Y-15935552D02*
X9013499Y-15945076D01*
X9013499Y-15945076D02*
X8965880Y-15945076D01*
X9165880Y-15945076D02*
X9165880Y-15811743D01*
X9165880Y-15849838D02*
X9175403Y-15830790D01*
X9175403Y-15830790D02*
X9184927Y-15821266D01*
X9184927Y-15821266D02*
X9203975Y-15811743D01*
X9203975Y-15811743D02*
X9223022Y-15811743D01*
X9289689Y-15945076D02*
X9289689Y-15811743D01*
X9289689Y-15745076D02*
X9280165Y-15754600D01*
X9280165Y-15754600D02*
X9289689Y-15764124D01*
X9289689Y-15764124D02*
X9299213Y-15754600D01*
X9299213Y-15754600D02*
X9289689Y-15745076D01*
X9289689Y-15745076D02*
X9289689Y-15764124D01*
X9413499Y-15945076D02*
X9394451Y-15935552D01*
X9394451Y-15935552D02*
X9384927Y-15916504D01*
X9384927Y-15916504D02*
X9384927Y-15745076D01*
X9518260Y-15945076D02*
X9499213Y-15935552D01*
X9499213Y-15935552D02*
X9489689Y-15916504D01*
X9489689Y-15916504D02*
X9489689Y-15745076D01*
X9746832Y-15945076D02*
X9746832Y-15745076D01*
X9746832Y-15745076D02*
X9813499Y-15887933D01*
X9813499Y-15887933D02*
X9880165Y-15745076D01*
X9880165Y-15745076D02*
X9880165Y-15945076D01*
X10061118Y-15945076D02*
X10061118Y-15840314D01*
X10061118Y-15840314D02*
X10051594Y-15821266D01*
X10051594Y-15821266D02*
X10032546Y-15811743D01*
X10032546Y-15811743D02*
X9994451Y-15811743D01*
X9994451Y-15811743D02*
X9975403Y-15821266D01*
X10061118Y-15935552D02*
X10042070Y-15945076D01*
X10042070Y-15945076D02*
X9994451Y-15945076D01*
X9994451Y-15945076D02*
X9975403Y-15935552D01*
X9975403Y-15935552D02*
X9965880Y-15916504D01*
X9965880Y-15916504D02*
X9965880Y-15897457D01*
X9965880Y-15897457D02*
X9975403Y-15878409D01*
X9975403Y-15878409D02*
X9994451Y-15868885D01*
X9994451Y-15868885D02*
X10042070Y-15868885D01*
X10042070Y-15868885D02*
X10061118Y-15859362D01*
X10156356Y-15811743D02*
X10156356Y-16011743D01*
X10156356Y-15821266D02*
X10175403Y-15811743D01*
X10175403Y-15811743D02*
X10213499Y-15811743D01*
X10213499Y-15811743D02*
X10232546Y-15821266D01*
X10232546Y-15821266D02*
X10242070Y-15830790D01*
X10242070Y-15830790D02*
X10251594Y-15849838D01*
X10251594Y-15849838D02*
X10251594Y-15906981D01*
X10251594Y-15906981D02*
X10242070Y-15926028D01*
X10242070Y-15926028D02*
X10232546Y-15935552D01*
X10232546Y-15935552D02*
X10213499Y-15945076D01*
X10213499Y-15945076D02*
X10175403Y-15945076D01*
X10175403Y-15945076D02*
X10156356Y-15935552D01*
X10337308Y-15926028D02*
X10346832Y-15935552D01*
X10346832Y-15935552D02*
X10337308Y-15945076D01*
X10337308Y-15945076D02*
X10327784Y-15935552D01*
X10327784Y-15935552D02*
X10337308Y-15926028D01*
X10337308Y-15926028D02*
X10337308Y-15945076D01*
X10337308Y-15821266D02*
X10346832Y-15830790D01*
X10346832Y-15830790D02*
X10337308Y-15840314D01*
X10337308Y-15840314D02*
X10327784Y-15830790D01*
X10327784Y-15830790D02*
X10337308Y-15821266D01*
X10337308Y-15821266D02*
X10337308Y-15840314D01*
M02*
