M48
INCH,TZ
T1C0.0157
T2C0.0315
T3C0.0354
T4C0.0394
T5C0.0433
T6C0.0472
T7C0.0591
T8C0.0669
T9C0.0709
T10C0.0866
T11C0.1181
T12C0.1378
%
G90
G05
T1
X35210Y-20300
X35770Y-35890
X35780Y-34300
X35780Y-35100
X36180Y-33910
X36180Y-34710
X36180Y-35510
X36190Y-31320
X36260Y-57598
X38150Y-31280
X38160Y-57330
X38248Y-59567
X38701Y-57697
X38907Y-58297
X39130Y-28480
X39130Y-29860
X40130Y-29331
X41910Y-26400
X42100Y-25810
X42291Y-24030
X42890Y-24030
X43500Y-24240
X44100Y-24030
X44480Y-55161
X44480Y-56154
X45260Y-33110
X45260Y-34310
X45270Y-32310
X45870Y-34300
X46453Y-31370
X46460Y-34490
X46640Y-50549
X46640Y-51880
X47240Y-28307
X47256Y-31563
X47264Y-26917
X47697Y-56730
X48228Y-23665
X48630Y-24060
X48901Y-39820
X48921Y-26810
X48921Y-31130
X48965Y-45220
X49008Y-23669
X49228Y-34680
X49413Y-24071
X49579Y-18354
X49780Y-14500
X49787Y-23677
X49957Y-18744
X50169Y-20693
X50170Y-53360
X50185Y-24055
X50205Y-34720
X50248Y-26835
X50299Y-31130
X50350Y-17736
X50551Y-50522
X50580Y-35644
X50949Y-22882
X50957Y-23465
X51360Y-19147
X51360Y-38850
X51366Y-16918
X51370Y-38268
X51380Y-39440
X51382Y-30957
X51555Y-51122
X51560Y-35644
X51945Y-27012
X51950Y-17130
X51953Y-27811
X51957Y-29776
X52331Y-27402
X52343Y-30173
X52350Y-28193
X52350Y-29378
X52540Y-35644
X52732Y-31157
X52925Y-24063
X52930Y-17330
X53120Y-46000
X53500Y-24063
X53528Y-28579
X53530Y-16930
X53535Y-35600
X53551Y-29374
X53720Y-46000
X53728Y-38268
X53736Y-38854
X53739Y-39440
X53910Y-43012
X53930Y-17340
X53930Y-41828
X53930Y-42430
X54079Y-24067
X54480Y-35643
X54510Y-16940
X54528Y-32335
X54685Y-23858
X54900Y-17340
X54909Y-37661
X55268Y-23866
X55285Y-38937
X55285Y-40138
X55450Y-35640
X55490Y-16940
X55866Y-21292
X55870Y-42800
X55890Y-17340
X56083Y-32531
X56094Y-42220
X56280Y-21657
X56480Y-16940
X56866Y-21284
X56870Y-17320
X56898Y-44197
X57240Y-38860
X57250Y-37680
X57250Y-38260
X57250Y-39450
X57250Y-40051
X57264Y-40626
X57441Y-43591
X57460Y-16910
X57469Y-37071
X57831Y-21291
X58067Y-36874
X58465Y-35685
X58640Y-36685
X58673Y-31555
X59030Y-43220
X59055Y-35496
X59618Y-26217
X59620Y-39240
X59620Y-39860
X59620Y-42430
X59646Y-29382
X59810Y-40440
X59854Y-17146
X60055Y-30961
X60210Y-39250
X60210Y-41420
X60220Y-33811
X60232Y-29374
X60425Y-26220
X60620Y-44783
X60630Y-30949
X60800Y-39250
X60800Y-41640
X60840Y-13690
X61008Y-26201
X61024Y-35283
X61028Y-34689
X61030Y-27291
X61030Y-28669
X61185Y-22449
X61400Y-37480
X61410Y-41820
X61413Y-30748
X61417Y-30169
X61626Y-39224
X61988Y-44892
X61990Y-42030
X62010Y-37486
X62402Y-30744
X62406Y-29563
X62410Y-39040
X62413Y-26209
X62413Y-30165
X62589Y-45413
X62600Y-37470
X62810Y-38450
X63177Y-22453
X63189Y-41811
X63376Y-44793
X63382Y-26213
X63386Y-30752
X63402Y-29559
X63402Y-30173
X64346Y-26224
X64380Y-30630
X64594Y-39091
X64972Y-34110
X65169Y-30768
X65169Y-33508
X65551Y-22480
X65555Y-26224
X65583Y-38630
X65661Y-23640
X65772Y-30740
X65950Y-19700
X66165Y-42587
X66530Y-19700
X66540Y-38331
X66540Y-39709
X66560Y-26099
X66720Y-42579
X66720Y-33114
X66920Y-40800
X66930Y-41400
X67100Y-29130
X67102Y-26783
X67106Y-30740
X67120Y-19700
X67120Y-37630
X67120Y-42228
X67295Y-22642
X67320Y-33150
X67445Y-17492
X67710Y-34120
X67874Y-22638
X68283Y-32524
X68300Y-33930
X68319Y-42953
X68710Y-25230
X68720Y-58260
X68886Y-32520
X69138Y-59110
X69264Y-26386
X69270Y-38250
X69270Y-40630
X69283Y-27610
X69283Y-33492
X69290Y-25830
X69290Y-27020
X69476Y-30925
X69488Y-29157
X69490Y-28400
X69510Y-29780
X69659Y-49759
X69870Y-45380
X70244Y-26563
X70248Y-25591
X70260Y-42752
X70276Y-40465
X70430Y-52340
X70650Y-43154
X70650Y-46380
X71248Y-43150
X71614Y-60669
X71800Y-40210
X71835Y-43161
X71850Y-33150
X71860Y-58440
X71979Y-51299
X72028Y-50709
X72037Y-26821
X72618Y-26821
X73002Y-52264
X73002Y-52943
X73236Y-45362
X73376Y-33150
X73389Y-59508
X73626Y-45760
X74016Y-45354
X74190Y-44010
X74370Y-58229
X74409Y-30423
X74413Y-45760
X74815Y-46157
X75004Y-43161
X75177Y-33120
X75193Y-44161
X75205Y-45752
X75360Y-58229
X75404Y-30423
X75980Y-60480
X75980Y-44165
X75990Y-55330
X75994Y-35276
X76350Y-58230
X76540Y-50821
X77340Y-55470
X77559Y-52894
X78130Y-40433
X78950Y-50190
X79319Y-58230
X79528Y-55059
X79920Y-55650
X80307Y-58230
X80307Y-59500
X80610Y-13169
X80610Y-15138
X80700Y-53889
X81110Y-50190
X81299Y-53091
X81535Y-59567
X83504Y-57569
X83870Y-49570
T2
X37138Y-26378
X37138Y-32378
X40138Y-26378
X40138Y-32378
X76190Y-53710
X76190Y-56710
X77190Y-53710
X77190Y-56710
X78190Y-53710
X78190Y-56710
X79190Y-53710
X79190Y-56710
T3
X37191Y-23840
X39160Y-23840
X40763Y-14756
X40763Y-15740
X41590Y-14756
X41590Y-15740
X42456Y-15740
X42633Y-14756
X43440Y-14756
X43440Y-15740
X48882Y-54540
X48882Y-55556
X48882Y-56584
X49882Y-54540
X49882Y-55556
X49882Y-56584
X50882Y-54540
X50882Y-55556
X50882Y-56584
X51882Y-54540
X51882Y-55556
X51882Y-56584
X52882Y-54540
X52882Y-55556
X52882Y-56584
X53882Y-54540
X53882Y-55556
X53882Y-56584
X54882Y-54540
X54882Y-55556
X54882Y-56584
X55882Y-54540
X55882Y-55556
X55882Y-56584
X56882Y-54540
X56882Y-55556
X56882Y-56584
X57882Y-54540
X57882Y-55556
X57882Y-56584
X58882Y-54540
X58882Y-55556
X58882Y-56584
X59882Y-54540
X59882Y-55556
X59882Y-56584
X60882Y-54540
X60882Y-55556
X60882Y-56584
X61882Y-54540
X61882Y-55556
X61882Y-56584
X62882Y-54540
X62882Y-55556
X62882Y-56584
X63882Y-54540
X63882Y-55556
X63882Y-56584
X64882Y-54540
X64882Y-55556
X64882Y-56584
X65882Y-54540
X65882Y-55556
X65882Y-56584
X66882Y-54540
X66882Y-55556
X66882Y-56584
X67882Y-54540
X67882Y-55556
X67882Y-56584
X68882Y-54540
X68882Y-55556
X68882Y-56584
X69882Y-54540
X69882Y-55556
X69882Y-56584
X70882Y-54540
X70882Y-55556
X70882Y-56584
T4
X51732Y-48790
X52216Y-47310
X52716Y-48790
X53200Y-47310
X53700Y-48790
X54184Y-47310
X54684Y-48790
X55169Y-47310
X55669Y-48790
X56153Y-47310
X56653Y-48790
X57137Y-47310
X57637Y-48790
X58121Y-47310
X58621Y-48790
X59106Y-47310
X59606Y-48790
X60090Y-47310
X60590Y-48790
X61074Y-47310
X61574Y-48790
X62059Y-47310
X62559Y-48790
X63043Y-47310
X63543Y-48790
X64027Y-47310
X64527Y-48790
X65011Y-47310
X65511Y-48790
X65996Y-47310
X66496Y-48790
X66980Y-47310
X67480Y-48790
X67964Y-47310
X68464Y-48790
X68948Y-47310
X69448Y-48790
X69933Y-47310
X70433Y-48790
X70917Y-47310
X71417Y-48790
X71901Y-47310
T5
X80417Y-39473
X80417Y-43410
X83330Y-39473
X83330Y-43410
T6
X36589Y-18095
X36589Y-19095
X36589Y-20095
X37160Y-21870
X37860Y-34280
X38169Y-18095
X38169Y-19095
X38169Y-20095
X39160Y-21870
X39749Y-18095
X39749Y-19095
X39749Y-20095
X39860Y-34280
X41329Y-18095
X41329Y-19095
X41329Y-20095
X42909Y-18095
X42909Y-19095
X42909Y-20095
X44489Y-18095
X44489Y-19095
X44489Y-20095
X45054Y-50790
X45054Y-52790
X46069Y-18095
X46069Y-19095
X46069Y-20095
X46634Y-15740
X48010Y-51772
X48634Y-15740
X49010Y-51772
X49430Y-41650
X49430Y-42650
X49430Y-43650
X49986Y-46810
X49986Y-48810
X50010Y-51772
X51530Y-41820
X51530Y-43820
X71256Y-22080
X71256Y-24080
X73000Y-36276
X73000Y-38276
X73000Y-40236
X73000Y-42236
X73616Y-23080
X73616Y-25080
X75380Y-40246
X75380Y-42246
X75390Y-36296
X75390Y-38296
X76544Y-23266
X76544Y-24266
X76544Y-25266
X77146Y-45220
X77146Y-47220
X77550Y-41246
X77550Y-43246
X77566Y-33340
X77566Y-35340
X77570Y-29376
X77570Y-31376
X77570Y-37276
X77570Y-39276
X79540Y-45226
X79540Y-47226
X80510Y-28937
X80510Y-36889
X80910Y-44570
X80910Y-47523
X82480Y-49786
X82480Y-51786
T7
X82880Y-28967
X82880Y-34873
T8
X71307Y-17120
X71307Y-20455
X83913Y-17069
X83961Y-20455
T9
X74425Y-17978
X74425Y-19553
X77594Y-17978
X77594Y-19553
X79169Y-17978
X79169Y-19553
X80744Y-17978
X80744Y-19553
T10
X35375Y-44894
X43698Y-37607
X43698Y-49697
T11
X46909Y-55564
X72878Y-55564
T12
X83650Y-24250
T4
G00X81885Y-46280
M15
G01X81885Y-47461
M16
G05
G00X82475Y-44961
M15
G01X83656Y-44961
M16
G05
G00X84247Y-46299
M15
G01X84247Y-47481
M16
G05
T0
M30
